<svg width="144" height="24" viewBox="0 0 144 24" fill="none" xmlns="http://www.w3.org/2000/svg">
  <path d="M12.0057 18.96c-1.572.84-3.32998 1.26-5.27398 1.26q-1.476 0-2.718-.468-1.224-.486-2.124-1.35c-.588-.588-1.050001-1.29-1.386001-2.106q-.5040001-1.224-.5040002-2.718 1e-7-1.53.5040002-2.772c.336-.84.798001-1.554 1.386001-2.142q.9-.882 2.124-1.35c.828-.324002 1.734-.486002 2.718-.486002q1.458 0 2.736.36C10.3197 7.416 11.0817 7.83 11.7537 8.43l-1.674 1.692c-.40798-.396-.90598-.702-1.49398-.918q-.864-.324-1.836-.324-.99 0-1.8.36-.792.342-1.368.972-.576.612-.9 1.44-.306.828-.306 1.782 0 1.026.306 1.89.324.864.9 1.494t1.368.99q.81.36 1.8.36.864 0 1.62-.162.774-.162 1.368-.504v-3.006h-2.61v-2.052h4.87798zm2.4898-7.704h2.16v1.368h.036q.36-.756 1.026-1.17t1.53-.414q.198 0 .378.036.198.036.396.09v2.088q-.27-.072-.54-.108-.252-.054-.504-.054-.756 0-1.224.288-.45.27-.702.63-.234.36-.324.72-.072.36-.072.54v4.626h-2.16zm7.0321 0h2.16v8.64h-2.16zm-.306-2.934q0-.522.378-.9c.264-.264002.594-.396002.99-.396002s.726.126.99.378002q.414.36.414.918t-.414.936q-.396.36-.99.36t-.99-.378q-.378-.396-.378-.918m9.5538 5.328q-.63-.882-1.692-.882-.432 0-.846.216t-.414.702q0 .396.342.576t.864.306 1.116.27q.612.126 1.134.414.522.27.864.756t.342 1.332q0 .774-.342 1.314-.324.522-.864.846-.522.324-1.188.468t-1.332.144q-1.008 0-1.854-.288t-1.512-1.044l1.44-1.35q.414.468.882.774.486.288 1.17.288.234 0 .486-.054t.468-.18.342-.306q.144-.198.144-.45 0-.45-.342-.666t-.864-.342q-.522-.144-1.134-.252-.594-.126-1.116-.378-.522-.27-.864-.738t-.342-1.296q0-.72.288-1.242.306-.54.792-.882t1.116-.504 1.278-.162q.864 0 1.71.306.846.288 1.368 1.008zm2.382-.558v-1.836h1.782V8.754h2.16v2.502h2.376v1.836h-2.376v3.78q0 .648.234 1.026.252.378.972.378.288 0 .63-.054.342-.072.54-.216v1.818q-.342.162-.846.216-.486.072-.864.072-.864 0-1.422-.198-.54-.18-.864-.558-.306-.396-.432-.972-.108-.576-.108-1.332v-3.96zm13.3739-5.940002h1.512V12.552h6.804V7.151998h1.512V19.896h-1.512v-5.94h-6.804v5.94h-1.512zM66.7935 18.366q-.756.972-1.656 1.368-.9.378-2.088.378-.99 0-1.782-.342-.792-.36-1.35-.954-.54-.594-.846-1.404-.288-.81-.288-1.728 0-.972.324-1.782.324-.828.9-1.404.576-.594 1.368-.918t1.728-.324q.882 0 1.62.306.738.288 1.26.864.54.558.828 1.386.288.81.288 1.854v.45h-6.804q.036.54.252 1.044.234.486.594.864.36.36.846.576t1.062.216q.918 0 1.548-.324t1.134-.954zm-1.206-3.438q-.036-1.08-.702-1.728t-1.836-.648-1.89.648-.864 1.728zm3.81-8.6400023h1.404V19.896h-1.404zM73.5237 11.472h1.404v1.224h.036q.576-.684 1.332-1.062.774-.378 1.692-.378.99 0 1.8.342.828.324 1.404.918t.9 1.404.324 1.764-.324 1.764-.9 1.404q-.558.594-1.332.936-.774.324-1.656.324-1.134 0-1.998-.486-.846-.504-1.242-1.224h-.036V24h-1.404zm1.404 4.212q0 .666.198 1.242.216.558.612.99.396.414.936.666.558.234 1.242.234t1.224-.234q.558-.252.954-.666.396-.432.594-.99.216-.576.216-1.242t-.216-1.224q-.198-.576-.594-.99-.396-.432-.954-.666-.54-.252-1.224-.252t-1.242.252q-.54.234-.936.666-.396.414-.612.99-.198.558-.198 1.224M98.7893 9.78q-.576-.774-1.422-1.152-.846-.396-1.764-.396-1.062 0-1.962.432-.882.432-1.53 1.17-.648.72-1.008 1.692-.36.954-.36 1.998 0 1.116.36 2.088.36.954.99 1.674.648.702 1.53 1.116.9.414 1.98.414 1.17 0 2.088-.45.918-.468 1.602-1.332l1.1337.954c-.5757.768-1.2717 1.332-2.0877 1.692q-1.206.54-2.736.54-1.368 0-2.556-.504t-2.07-1.386q-.864-.9-1.368-2.124-.486-1.224-.486-2.682 0-1.404.468-2.628.486-1.224 1.35-2.124t2.052-1.422c.792-.348002 1.662-.522002 2.61-.522002.864 0 1.692.156 2.484.468002.804.312 1.476.822 2.0157 1.53zm11.0177 8.586q-.756.972-1.656 1.368-.9.378-2.088.378-.99 0-1.782-.342-.792-.36-1.35-.954-.54-.594-.846-1.404-.288-.81-.288-1.728 0-.972.324-1.782.324-.828.9-1.404.576-.594 1.368-.918t1.728-.324q.882 0 1.62.306.738.288 1.26.864.54.558.828 1.386.288.81.288 1.854v.45h-6.804q.036.54.252 1.044.234.486.594.864.36.36.846.576t1.062.216q.918 0 1.548-.324t1.134-.954zm-1.206-3.438q-.036-1.08-.702-1.728t-1.836-.648-1.89.648-.864 1.728zm3.684-1.458q0-.576-.036-1.08t-.036-.918h1.332q0 .342.018.684t.018.702h.036q.144-.306.396-.594.27-.288.63-.504.36-.234.81-.36.45-.144.972-.144.828 0 1.422.252.612.252 1.008.702t.576 1.098q.198.63.198 1.386v5.202h-1.404v-5.058q0-1.062-.468-1.674t-1.458-.612q-.684 0-1.188.234-.486.234-.81.666-.306.432-.468 1.026-.144.594-.144 1.314v4.104h-1.404zm14.61-.81h-2.484v4.212q0 .414.018.774.018.342.144.612.126.252.378.414.252.144.72.144.306 0 .63-.072t.612-.216l.054 1.278q-.36.162-.81.234-.432.072-.828.072-.756 0-1.206-.198t-.702-.558-.342-.882q-.072-.54-.072-1.188V12.66h-1.836v-1.188h1.836V9.078h1.404v2.394h2.484zm9.244 5.706q-.756.972-1.656 1.368-.9.378-2.088.378-.99 0-1.782-.342-.792-.36-1.35-.954-.54-.594-.846-1.404-.288-.81-.288-1.728 0-.972.324-1.782.324-.828.9-1.404.576-.594 1.368-.918t1.728-.324q.882 0 1.62.306.738.288 1.26.864.54.558.828 1.386.288.81.288 1.854v.45h-6.804q.036.54.252 1.044.234.486.594.864.36.36.846.576t1.062.216q.918 0 1.548-.324t1.134-.954zm-1.206-3.438q-.036-1.08-.702-1.728t-1.836-.648-1.89.648-.864 1.728zm3.684-1.458q0-.576-.036-1.08t-.036-.918h1.332q0 .342.018.684t.018.702h.036q.144-.306.396-.594.27-.288.63-.504.36-.234.81-.36.45-.144.972-.144.144 0 .288.018t.288.072l-.09 1.422q-.36-.108-.756-.108-1.296 0-1.89.846-.576.828-.576 2.286v4.104h-1.404z" fill="#494949"/>
</svg>
