<svg width="32.000088" height="32" viewBox="0 0 8.4666899 8.4666667" xmlns="http://www.w3.org/2000/svg">
  <g fill-rule="evenodd" clip-rule="evenodd">
    <path d="M8.46669.24677h-1.3081c-.6036 0-1.09363.50015-1.09363 1.11623v1.11228h1.31839c.59793 0 1.08334-.49546 1.08334-1.10572zm-5.43423 0h1.3081c.6036 0 1.09363.50015 1.09363 1.11623v1.11228H4.1158c-.59791 0-1.08334-.49546-1.08334-1.10572z" fill="#16b378"/>
    <path d="M0 3.11906h1.30809c.6036 0 1.09363.50017 1.09363 1.11623v1.11228H1.08333C.48541 5.34757 0 4.85211 0 4.24185zm0 2.87232h1.30809c.6036 0 1.09363.50014 1.09363 1.11622v1.11229H1.08333C.48541 8.21989 0 7.72443 0 7.11417z" fill="#f9ae41"/>
    <path d="M3.03246 3.11906h1.3081c.6036 0 1.09363.50017 1.09363 1.11623v1.11228H4.1158c-.59791 0-1.08334-.49546-1.08334-1.10572zm5.43423 0h-1.3081c-.6036 0-1.09363.50017-1.09363 1.11623v1.11228h1.31839c.59793 0 1.08334-.49546 1.08334-1.10572zM3.03246 5.99138h1.3081c.6036 0 1.09363.50014 1.09363 1.11622v1.11229H4.1158c-.59791 0-1.08334-.49546-1.08334-1.10572zm5.43423 0h-1.3081c-.6036 0-1.09363.50014-1.09363 1.11622v1.11229h1.31839c.59793 0 1.08334-.49546 1.08334-1.10572z" fill="#d9d9d9"/>
  </g>
</svg>
