<svg width="80" height="80" viewBox="0 0 80 80" fill="none" xmlns="http://www.w3.org/2000/svg">
  <g clip-path="url(#clip0_660_703)">
  <path d="M46.8668 31.5442C47.017 29.5464 45.2144 28.5581 44.6565 28.3057C44.0556 28.0324 43.5406 27.9482 43.1972 27.9482C42.9397 27.9482 42.7895 27.9903 42.7466 28.0324C42.7466 28.6842 42.7466 31.4601 42.7466 34.9929C43.9054 34.8457 46.6951 34.2148 46.8882 31.5442H46.8668Z" fill="#F9AE41"/>
  <path d="M36.9958 27.9268C36.6524 27.9268 36.1374 28.0109 35.5365 28.2842C34.9786 28.5366 33.176 29.5249 33.3262 31.5227C33.5194 34.1933 36.3091 34.8242 37.4679 34.9714C37.4679 31.4596 37.4679 28.6838 37.4679 28.0319C37.425 27.9688 37.2533 27.9268 36.9958 27.9268Z" fill="#F9AE41"/>
  <path d="M37.4464 54.3182C37.4464 53.3299 37.4464 43.951 37.4464 36.6541C35.3219 36.4438 31.8884 35.2241 31.6309 31.6702C31.5021 29.9038 32.4034 28.2846 34.0773 27.2332C35.515 26.3289 37.2318 26.0555 38.2189 26.5813C38.7768 26.8757 39.0987 27.4224 39.0987 28.0322C39.0987 30.051 39.0987 52.699 39.0987 54.3182H41.03C41.03 52.699 41.03 30.072 41.03 28.0322C41.03 27.4014 41.3519 26.8757 41.9099 26.5813C42.897 26.0555 44.6137 26.3079 46.0515 27.2332C47.7253 28.2846 48.6052 29.9038 48.4979 31.6702C48.2403 35.2451 44.8069 36.4648 42.6824 36.6541C42.6824 43.951 42.6824 53.3089 42.6824 54.3182H47.5751C57.7682 41.4486 59.9785 35.2031 59.9785 26.2869C60 15.436 51.0515 6.66699 40 6.66699C28.9485 6.66699 20 15.436 20 26.2658C20 35.182 22.4464 41.5117 32.4893 54.2972H37.4678L37.4464 54.3182Z" fill="#F9AE41"/>
  <path d="M39.1201 28.0321C39.1201 27.4013 38.7983 26.8756 38.2403 26.5812C37.2532 26.0554 35.5365 26.3078 34.0987 27.2331C32.4249 28.2845 31.545 29.9037 31.6523 31.6701C31.9098 35.245 35.3433 36.4647 37.4678 36.654C37.4678 43.9509 37.4678 53.3298 37.4678 54.3181V54.4233H39.1416V54.3181C39.1416 52.6989 39.1416 30.0719 39.1416 28.0321H39.1201ZM33.3262 31.544C33.1759 29.5462 34.9785 28.5579 35.5365 28.3055C36.1373 28.0321 36.6523 27.948 36.9957 27.948C37.2532 27.948 37.4034 27.9901 37.4678 28.0532C37.4678 28.7051 37.4678 31.4809 37.4678 34.9927C36.309 34.8455 33.5193 34.2146 33.3262 31.544Z" fill="white"/>
  <path d="M48.5191 31.6496C48.6478 29.8832 47.7465 28.264 46.0727 27.2125C44.635 26.3083 42.9182 26.0349 41.9311 26.5606C41.3732 26.855 41.0513 27.4018 41.0513 28.0116C41.0513 30.0304 41.0513 52.6574 41.0513 54.2976V54.4028H42.7251V54.2976C42.7251 53.2882 42.7251 43.9304 42.7251 36.6334C44.8496 36.4442 48.283 35.2035 48.5405 31.6496H48.5191ZM42.7251 28.0327C42.7251 28.0327 42.9397 27.9485 43.1757 27.9485C43.5191 27.9485 44.0341 28.0327 44.635 28.306C45.1929 28.5584 46.9955 29.5467 46.8453 31.5445C46.6521 34.2151 43.8624 34.846 42.7036 34.9932C42.7036 31.4604 42.7036 28.6846 42.7036 28.0327H42.7251Z" fill="white"/>
  <path d="M32.6183 60.2906H47.6397C48.9916 60.2906 50.0646 59.2181 50.0646 57.9143C50.0646 56.6106 48.9702 55.5381 47.6397 55.5381H32.6183C31.2663 55.5381 30.1934 56.6106 30.1934 57.9143C30.1934 59.2181 31.2878 60.2906 32.6183 60.2906Z" fill="#F9AE41"/>
  <path d="M47.7896 61.8252H32.7682C31.4162 61.8252 30.3433 62.8977 30.3433 64.2015C30.3433 65.5052 31.4377 66.5777 32.7682 66.5777H47.7896C49.1415 66.5777 50.2145 65.5052 50.2145 64.2015C50.2145 62.8977 49.1201 61.8252 47.7896 61.8252Z" fill="#F9AE41"/>
  <path d="M39.8499 71.6674C42.4894 71.6674 44.6782 69.9641 45.4293 67.6299H34.2705C35.0216 69.9641 37.2319 71.6674 39.8499 71.6674Z" fill="#F9AE41"/>
  </g>
  <defs>
  <clipPath id="clip0_660_703">
  <rect width="40" height="65" fill="white" transform="translate(20 6.66699)"/>
  </clipPath>
  </defs>
  </svg>
  