<svg width="80" height="80" viewBox="0 0 80 80" fill="none" xmlns="http://www.w3.org/2000/svg">
<g clip-path="url(#clip0_660_88)">
<path d="M31.5957 59.6201H21.1991C20.7088 59.6201 20.3076 59.2298 20.3076 58.7527C20.3076 58.2756 20.7088 57.8852 21.1991 57.8852H30.7154V40.7209C30.7154 40.2439 31.1166 39.8535 31.6069 39.8535C32.0972 39.8535 32.4983 40.2439 32.4983 40.7209V58.7527C32.4983 59.2298 32.0972 59.6201 31.6069 59.6201H31.5957Z" fill="#7141F9"/>
<path d="M18.58 61.4201C20.137 61.4201 21.3992 60.1919 21.3992 58.6768C21.3992 57.1618 20.137 55.9336 18.58 55.9336C17.023 55.9336 15.7607 57.1618 15.7607 58.6768C15.7607 60.1919 17.023 61.4201 18.58 61.4201Z" fill="#7141F9"/>
<path d="M40.5101 70.5713C40.0533 70.5713 39.6855 70.2135 39.6855 69.7689V40.8834C39.6855 40.4389 40.0533 40.0811 40.5101 40.0811C40.967 40.0811 41.3347 40.4389 41.3347 40.8834V69.7689C41.3347 70.2135 40.967 70.5713 40.5101 70.5713Z" fill="#7141F9"/>
<path d="M40.4765 71.6662C42.0335 71.6662 43.2957 70.438 43.2957 68.9229C43.2957 67.4079 42.0335 66.1797 40.4765 66.1797C38.9194 66.1797 37.6572 67.4079 37.6572 68.9229C37.6572 70.438 38.9194 71.6662 40.4765 71.6662Z" fill="#7141F9"/>
<path d="M60.4789 59.6523H50.0711C49.5808 59.6523 49.1797 59.262 49.1797 58.7849V40.7532C49.1797 40.2761 49.5808 39.8857 50.0711 39.8857C50.5614 39.8857 50.9626 40.2761 50.9626 40.7532V57.9175H60.4789C60.9692 57.9175 61.3704 58.3078 61.3704 58.7849C61.3704 59.262 60.9692 59.6523 60.4789 59.6523Z" fill="#7141F9"/>
<path d="M63.0976 61.4523C64.6546 61.4523 65.9168 60.2241 65.9168 58.7091C65.9168 57.194 64.6546 55.9658 63.0976 55.9658C61.5405 55.9658 60.2783 57.194 60.2783 58.7091C60.2783 60.2241 61.5405 61.4523 63.0976 61.4523Z" fill="#7141F9"/>
<path d="M24.8647 48.1472C24.8647 48.1472 12.4177 48.8086 10.3785 40.1126C8.33926 31.4166 15.0141 26.8951 19.0925 26.1253C17.1536 22.4929 21.8671 12.062 32.3306 17.5377C35.2725 12.1379 39.8746 7.36708 48.6332 8.49474C56.3889 9.49228 63.3423 16.3125 62.3282 24.4663C69.0253 26.971 72.9923 31.8503 71.2651 39.4404C69.8833 45.5341 64.022 47.9195 58.3612 47.7026C52.7005 47.4858 24.8647 48.1472 24.8647 48.1472Z" fill="#7141F9"/>
<path d="M37.5235 42.4228C37.3786 42.4228 37.2337 42.3903 37.0889 42.3361C36.5206 42.1084 36.2531 41.4687 36.4983 40.9157L44.566 22.3635C44.8 21.8105 45.4575 21.5503 46.0258 21.7888C46.5941 22.0165 46.8615 22.6562 46.6164 23.2092L38.5487 41.7614C38.3704 42.1734 37.9581 42.4228 37.5235 42.4228Z" fill="white"/>
<path d="M32.9324 38.5306C32.7096 38.5306 32.4867 38.4656 32.2861 38.3246L24.3967 32.849C24.0959 32.643 23.9287 32.3068 23.9287 31.9599C23.9287 31.602 24.107 31.2768 24.4079 31.0816L32.2973 25.7794C32.8099 25.4324 33.5007 25.5626 33.8462 26.0505C34.1916 26.5384 34.0691 27.2215 33.5676 27.5576L26.982 31.9815L33.5788 36.5572C34.0802 36.9042 34.1916 37.5873 33.835 38.0644C33.6122 38.3572 33.2779 38.5198 32.9213 38.5198L32.9324 38.5306Z" fill="white"/>
<path d="M50.3494 38.7044C50.0039 38.7044 49.6585 38.5418 49.4356 38.249C49.079 37.7611 49.1905 37.0888 49.6919 36.7418L56.2887 32.1661L49.7031 27.7422C49.2016 27.4061 49.0679 26.723 49.4245 26.2351C49.7699 25.7363 50.4719 25.617 50.9734 25.964L58.8628 31.2662C59.1637 31.4722 59.3419 31.7975 59.3419 32.1444C59.3419 32.5023 59.1748 32.8276 58.8739 33.0336L50.9845 38.5092C50.7839 38.6393 50.5611 38.7152 50.3382 38.7152L50.3494 38.7044Z" fill="white"/>
</g>
<defs>
<clipPath id="clip0_660_88">
<rect width="61.6667" height="63.3333" fill="white" transform="translate(10 8.33301)"/>
</clipPath>
</defs>
</svg>
