<svg width="40" height="40" viewBox="0 0 40 40" fill="none" xmlns="http://www.w3.org/2000/svg">
  <path d="M16.1112 8.33717C16.1112 8.33717 11.6127 8.64808 8.6707 11.0243C8.65691 11.0299 8.64035 11.0382 8.62655 11.0465C8.11598 11.5212 7.73237 12.2568 7.25768 13.3117C6.78299 14.3666 6.2807 15.724 5.82257 17.2425C4.90907 20.2822 4.16668 24.0131 4.16668 27.5247C4.16392 27.6496 4.19428 27.7717 4.25499 27.88C5.28716 29.7038 7.18592 30.8059 8.95773 31.4999C10.7295 32.1939 12.3661 32.4715 13.1968 32.4992C13.4314 32.5076 13.6549 32.3993 13.7929 32.2105L15.5151 29.8121C16.9033 30.1424 18.5315 30.3673 20.4165 30.3673C22.3015 30.3673 23.9298 30.1424 25.3179 29.8121L27.0401 32.2105C27.1781 32.3993 27.4016 32.5076 27.6362 32.4992C28.4669 32.4715 30.1035 32.1939 31.8753 31.4999C33.6471 30.8059 35.5458 29.7038 36.578 27.88C36.6387 27.7717 36.6691 27.6496 36.6663 27.5247C36.6663 24.0131 35.9239 20.2822 35.0104 17.2425C34.5523 15.724 34.05 14.3666 33.5753 13.3117C33.1006 12.2568 32.717 11.5212 32.2065 11.0465C32.1927 11.0382 32.1761 11.0299 32.1623 11.0243C29.2203 8.64808 24.7218 8.33717 24.7218 8.33717C24.6694 8.33162 24.6197 8.33162 24.5673 8.33717C24.3217 8.37048 24.1147 8.53149 24.0153 8.75912C24.0153 8.75912 23.7752 9.28933 23.6179 10.0472C22.2407 9.82509 21.0816 9.75847 20.4165 9.75847C19.7514 9.75847 18.5923 9.82509 17.2151 10.0472C17.0578 9.28933 16.8177 8.75912 16.8177 8.75912C16.6963 8.48152 16.412 8.31219 16.1112 8.33717ZM15.6696 9.86951C15.722 10.0139 15.7579 10.1499 15.8021 10.3137C14.2097 10.6856 12.4655 11.2936 10.8344 12.3124C10.5777 12.4206 10.4094 12.6705 10.4011 12.9508C10.3956 13.2284 10.5529 13.4866 10.8013 13.6087C11.0524 13.7281 11.3505 13.692 11.563 13.5116C14.8361 11.4712 19.0007 11.1798 20.4165 11.1798C21.8323 11.1798 25.9969 11.4712 29.27 13.5116C29.4825 13.692 29.7806 13.7281 30.0317 13.6087C30.2801 13.4866 30.4374 13.2284 30.4319 12.9508C30.4236 12.6705 30.2553 12.4206 29.9986 12.3124C28.3675 11.2936 26.6233 10.6856 25.0309 10.3137C25.0751 10.1499 25.111 10.0139 25.1634 9.86951C25.9693 9.96944 29.1017 10.3942 31.235 12.0903C31.373 12.218 31.8532 12.9286 32.2948 13.9113C32.7363 14.894 33.2 16.1737 33.6416 17.6422C34.5026 20.507 35.1981 24.0408 35.2312 27.2804C34.4281 28.5879 32.9213 29.5595 31.3675 30.1674C29.9544 30.7198 28.6353 30.9669 27.9453 31.0335L26.7531 29.4123C27.3602 29.2153 27.9067 29.0015 28.3869 28.7905C30.1697 28.0022 31.1246 27.1694 31.1246 27.1694C31.4172 26.9056 31.442 26.4532 31.1798 26.1589C30.9176 25.8647 30.4678 25.8397 30.1752 26.1034C30.1752 26.1034 29.4356 26.7835 27.8128 27.5025C27.2167 27.7662 26.4936 28.0271 25.6712 28.2575C25.4808 28.2353 25.2903 28.2909 25.1413 28.413C23.8249 28.735 22.2601 28.946 20.4165 28.946C18.5591 28.946 16.9916 28.7156 15.6696 28.3908C15.5206 28.2909 15.3384 28.2492 15.1618 28.2797C14.3366 28.0493 13.6191 27.7662 13.0202 27.5025C11.3974 26.7835 10.6578 26.1034 10.6578 26.1034C10.4977 25.9535 10.2769 25.8896 10.0617 25.9257C9.78843 25.9674 9.56213 26.1645 9.48761 26.4337C9.41034 26.7002 9.49865 26.9889 9.7084 27.1694C9.7084 27.1694 10.6633 28.0022 12.4461 28.7905C12.9263 29.0015 13.4728 29.2153 14.08 29.4123L12.8877 31.0335C12.1978 30.9669 10.8786 30.7198 9.46553 30.1674C7.91175 29.5595 6.40489 28.5879 5.60178 27.2804C5.6349 24.0408 6.33038 20.507 7.19144 17.6422C7.63301 16.1737 8.09666 14.894 8.53823 13.9113C8.9798 12.9286 9.46001 12.218 9.598 12.0903C11.7313 10.3942 14.8637 9.96944 15.6696 9.86951ZM15.8242 18.2863C14.022 18.2863 12.6448 19.9324 12.6448 21.8395C12.6448 23.7466 14.022 25.3927 15.8242 25.3927C17.6263 25.3927 19.0035 23.7466 19.0035 21.8395C19.0035 19.9324 17.6263 18.2863 15.8242 18.2863ZM25.0088 18.2863C23.2067 18.2863 21.8295 19.9324 21.8295 21.8395C21.8295 23.7466 23.2067 25.3927 25.0088 25.3927C26.811 25.3927 28.1882 23.7466 28.1882 21.8395C28.1882 19.9324 26.811 18.2863 25.0088 18.2863ZM15.8242 19.7076C16.7542 19.7076 17.5904 20.607 17.5904 21.8395C17.5904 23.072 16.7542 23.9714 15.8242 23.9714C14.8941 23.9714 14.0579 23.072 14.0579 21.8395C14.0579 20.607 14.8941 19.7076 15.8242 19.7076ZM25.0088 19.7076C25.9389 19.7076 26.7751 20.607 26.7751 21.8395C26.7751 23.072 25.9389 23.9714 25.0088 23.9714C24.0788 23.9714 23.2426 23.072 23.2426 21.8395C23.2426 20.607 24.0788 19.7076 25.0088 19.7076Z" fill="#16B378"/>
  </svg>
  