<svg width="423" height="237" viewBox="0 0 423 237" fill="none" xmlns="http://www.w3.org/2000/svg">
  <path d="M50.6727 44.611C62.9883 44.611 72.972 34.6245 72.972 22.3055C72.972 9.98652 62.9883 0 50.6727 0C38.3572 0 28.3735 9.98652 28.3735 22.3055C28.3735 34.6245 38.3572 44.611 50.6727 44.611Z" fill="#F9AE41"/>
  <path d="M118.947 21.1426C113.046 14.9501 106.192 9.30084 98.078 6.31559C95.8179 5.4805 93.4744 4.89143 91.0881 4.55856C91.0689 4.55593 91.0508 4.55982 91.0317 4.55827C90.9929 4.54826 90.9535 4.54053 90.9138 4.53512C87.5763 4.10982 84.1887 4.3144 80.9267 5.13823C79.3314 5.53866 77.7752 6.08094 76.2765 6.75861C74.7726 7.49254 73.3153 8.31862 71.9131 9.23215C68.9451 11.0093 65.6774 12.2287 62.271 12.8303C60.5611 13.1382 58.8293 13.3082 57.0923 13.3387C55.5851 13.3689 54.1637 13.4213 52.7356 13.966C51.2102 14.5398 49.84 15.4622 48.7343 16.6598C47.6286 17.8574 46.818 19.2969 46.3673 20.8634C46.3325 21.0029 46.343 21.1499 46.3972 21.283C46.4513 21.4162 46.5464 21.5287 46.6687 21.6043C47.055 21.881 47.4315 22.195 47.8374 22.4416C48.1984 22.6069 48.5841 22.7121 48.979 22.753C49.6243 22.8892 50.2704 23.0214 50.9173 23.1497C53.3005 23.622 55.6936 24.0401 58.0966 24.404C62.959 25.1403 67.8476 25.6589 72.7625 25.9599C82.6085 26.5565 92.4883 26.2595 102.281 25.0725C107.784 24.4058 113.25 23.4601 118.658 22.2391C118.767 22.2071 118.867 22.1473 118.946 22.0656C119.026 21.9839 119.083 21.8829 119.112 21.7726C119.141 21.6623 119.141 21.5463 119.112 21.4359C119.083 21.3256 119.027 21.2245 118.947 21.1426Z" fill="#E8E8E8"/>
  <path d="M51.7308 36.0568C49.4707 35.2217 47.1272 34.6326 44.7409 34.2998C44.7218 34.2971 44.7036 34.301 44.6845 34.2995C44.6457 34.2895 44.6063 34.2817 44.5666 34.2763C41.2291 33.851 37.8415 34.0556 34.5795 34.8794C32.9843 35.2799 31.428 35.8222 29.9293 36.4998C28.4254 37.2337 26.9682 38.0598 25.566 38.9734C22.598 40.7505 19.3302 41.9699 15.9238 42.5715C14.214 42.8794 12.4822 43.0494 10.7451 43.0799C9.2379 43.1101 7.8165 43.1625 6.38848 43.7072C4.86307 44.281 3.49284 45.2034 2.38714 46.401C1.28144 47.5985 0.470869 49.038 0.0201126 50.6046C-0.0146343 50.7441 -0.00416451 50.8911 0.0500103 51.0242C0.104185 51.1574 0.199261 51.2699 0.321516 51.3455C0.707809 51.6222 1.08439 51.9362 1.49024 52.1828C1.85129 52.3481 2.2369 52.4533 2.63186 52.4942C3.27712 52.6304 3.9232 52.7626 4.57011 52.8908C6.9533 53.3632 9.3464 53.7813 11.7494 54.1452C16.6118 54.8815 21.5005 55.4001 26.4154 55.7011C36.2613 56.2977 46.1411 56.0007 55.9335 54.8137C61.4369 54.1469 66.9029 53.2013 72.3105 51.9803C72.42 51.9483 72.5193 51.8885 72.5989 51.8068C72.6785 51.725 72.7357 51.6241 72.7648 51.5138C72.7939 51.4035 72.794 51.2875 72.7651 51.1771C72.7363 51.0667 72.6793 50.9657 72.5999 50.8838C66.6985 44.6913 59.8446 39.0421 51.7308 36.0568Z" fill="#E8E8E8"/>
  <path d="M44.3289 232L43.7407 231.989C43.9682 225.508 44.666 219.052 45.8286 212.67C48.372 199.007 52.6012 190.034 58.3987 186L58.7365 186.477C45.1933 195.9 44.3358 231.64 44.3289 232Z" fill="#494949"/>
  <path d="M51.3475 231L50.7388 230.989C50.7519 230.346 51.1323 215.189 57.3872 211L57.7368 211.475C51.7342 215.495 51.3505 230.845 51.3475 231Z" fill="#494949"/>
  <path d="M61.736 186C63.3923 186 64.7351 184.657 64.7351 183C64.7351 181.343 63.3923 180 61.736 180C60.0796 180 58.7368 181.343 58.7368 183C58.7368 184.657 60.0796 186 61.736 186Z" fill="#F9AE41"/>
  <path d="M59.736 211C61.3924 211 62.7351 209.657 62.7351 208C62.7351 206.343 61.3924 205 59.736 205C58.0796 205 56.7368 206.343 56.7368 208C56.7368 209.657 58.0796 211 59.736 211Z" fill="#F9AE41"/>
  <path d="M49.6133 188.199C50.1618 191.789 48.7323 195 48.7323 195C48.7323 195 46.4135 192.39 45.8651 188.801C45.3166 185.211 46.7461 182 46.7461 182C46.7461 182 49.0648 184.609 49.6133 188.199Z" fill="#494949"/>
  <path d="M59.344 196.375C56.0312 197.576 52.7378 196.676 52.7378 196.676C52.7378 196.676 54.8154 193.827 58.1282 192.625C61.441 191.424 64.7344 192.324 64.7344 192.324C64.7344 192.324 62.6567 195.173 59.344 196.375Z" fill="#494949"/>
  <path d="M59.1419 218.629C57.7159 219.053 56.1972 219.115 54.7378 218.809C55.6644 217.695 56.9124 216.857 58.3314 216.398C59.7504 215.938 61.2799 215.875 62.7355 216.218C61.7819 217.305 60.5427 218.137 59.1419 218.629Z" fill="#494949"/>
  <path d="M304.317 14.5H189.959C187.381 14.5 185.291 16.5908 185.291 19.17V95.9499C185.291 98.5291 187.381 100.62 189.959 100.62H304.317C306.895 100.62 308.985 98.5291 308.985 95.9499V19.17C308.985 16.5908 306.895 14.5 304.317 14.5Z" fill="white"/>
  <path d="M304.306 16C306.056 16 307.475 17.42 307.475 19.17V95.9499C307.475 97.6999 306.056 99.1199 304.306 99.1199H189.959C188.209 99.1199 186.79 97.6999 186.79 95.9499V19.17C186.79 17.42 188.209 16 189.959 16H304.306ZM304.306 13H189.959C186.55 13 183.791 15.76 183.791 19.17V95.9499C183.791 99.3599 186.55 102.12 189.959 102.12H304.306C307.715 102.12 310.475 99.3599 310.475 95.9499V19.17C310.475 15.76 307.715 13 304.306 13Z" fill="#D9D9D9"/>
  <path d="M293.75 24.1396H201.486C198.83 24.1396 196.677 26.2932 196.677 28.9496V86.7496C196.677 89.4061 198.83 91.5596 201.486 91.5596H293.75C296.405 91.5596 298.558 89.4061 298.558 86.7496V28.9496C298.558 26.2932 296.405 24.1396 293.75 24.1396Z" fill="#D9D9D9" fill-opacity="0.6"/>
  <path d="M260.968 60.6752C263.634 59.1353 263.634 55.2861 260.967 53.7469L237.405 40.1432C234.739 38.604 231.407 40.5286 231.407 43.6075V70.8215C231.407 73.9009 234.739 75.8254 237.405 74.2855L260.968 60.6752Z" fill="#16B378"/>
  <path d="M221.12 84.0703H145.551C143.111 84.0703 141.132 86.0492 141.132 88.4903V192.8C141.132 195.241 143.111 197.22 145.551 197.22H221.12C223.56 197.22 225.538 195.241 225.538 192.8V88.4903C225.538 86.0492 223.56 84.0703 221.12 84.0703Z" fill="white"/>
  <path d="M221.12 85.4904C222.78 85.4904 224.119 86.8404 224.119 88.4904V192.8C224.119 194.46 222.77 195.8 221.12 195.8H145.552C143.892 195.8 142.553 194.45 142.553 192.8V88.4904C142.553 86.8304 143.902 85.4904 145.552 85.4904H221.11M221.12 82.6504H145.552C142.323 82.6504 139.713 85.2704 139.713 88.4904V192.8C139.713 196.03 142.333 198.64 145.552 198.64H221.11C224.339 198.64 226.949 196.02 226.949 192.8V88.4904C226.949 85.2604 224.329 82.6504 221.11 82.6504H221.12Z" fill="#D9D9D9"/>
  <path fill-rule="evenodd" clip-rule="evenodd" d="M155.609 99.3008C155.609 98.7485 156.056 98.3008 156.609 98.3008H209.624C210.176 98.3008 210.623 98.7485 210.623 99.3008C210.623 99.8531 210.176 100.301 209.624 100.301H156.609C156.056 100.301 155.609 99.8531 155.609 99.3008Z" fill="#D9D9D9"/>
  <path fill-rule="evenodd" clip-rule="evenodd" d="M155.609 107.12C155.609 106.568 156.056 106.12 156.609 106.12H209.624C210.176 106.12 210.623 106.568 210.623 107.12C210.623 107.672 210.176 108.12 209.624 108.12H156.609C156.056 108.12 155.609 107.672 155.609 107.12Z" fill="#D9D9D9"/>
  <path fill-rule="evenodd" clip-rule="evenodd" d="M155.609 114.94C155.609 114.388 156.056 113.94 156.609 113.94H209.624C210.176 113.94 210.623 114.388 210.623 114.94C210.623 115.493 210.176 115.94 209.624 115.94H156.609C156.056 115.94 155.609 115.493 155.609 114.94Z" fill="#D9D9D9"/>
  <path fill-rule="evenodd" clip-rule="evenodd" d="M155.609 130.58C155.609 130.028 156.056 129.58 156.609 129.58H209.624C210.176 129.58 210.623 130.028 210.623 130.58C210.623 131.132 210.176 131.58 209.624 131.58H156.609C156.056 131.58 155.609 131.132 155.609 130.58Z" fill="#D9D9D9"/>
  <path fill-rule="evenodd" clip-rule="evenodd" d="M155.609 122.76C155.609 122.207 156.056 121.76 156.609 121.76H209.624C210.176 121.76 210.623 122.207 210.623 122.76C210.623 123.312 210.176 123.76 209.624 123.76H156.609C156.056 123.76 155.609 123.312 155.609 122.76Z" fill="#D9D9D9"/>
  <path d="M209.723 139.41H156.638C156.086 139.41 155.638 139.858 155.638 140.41V164.96C155.638 165.512 156.086 165.96 156.638 165.96H209.723C210.275 165.96 210.723 165.512 210.723 164.96V140.41C210.723 139.858 210.275 139.41 209.723 139.41Z" fill="#16B378"/>
  <path fill-rule="evenodd" clip-rule="evenodd" d="M155.599 183.37C155.599 182.818 156.047 182.37 156.599 182.37H209.614C210.166 182.37 210.614 182.818 210.614 183.37C210.614 183.922 210.166 184.37 209.614 184.37H156.599C156.047 184.37 155.599 183.922 155.599 183.37Z" fill="#D9D9D9"/>
  <path fill-rule="evenodd" clip-rule="evenodd" d="M155.599 175.551C155.599 174.998 156.047 174.551 156.599 174.551H209.614C210.166 174.551 210.614 174.998 210.614 175.551C210.614 176.103 210.166 176.551 209.614 176.551H156.599C156.047 176.551 155.599 176.103 155.599 175.551Z" fill="#D9D9D9"/>
  <ellipse cx="184.253" cy="212.5" rx="44.5" ry="2.5" fill="#009058"/>
  <path d="M266.143 87.0303H380.95C383.43 87.0303 385.449 89.0503 385.449 91.5303V162.33C385.449 164.81 383.43 166.83 380.95 166.83H266.143C263.663 166.83 261.644 164.81 261.644 162.33V91.5303C261.644 89.0503 263.663 87.0303 266.143 87.0303Z" fill="white"/>
  <path d="M380.94 88.4701C382.619 88.4701 383.989 89.8401 383.989 91.5201V162.32C383.989 164 382.619 165.37 380.94 165.37H266.132C264.453 165.37 263.083 164 263.083 162.32V91.5201C263.083 89.8401 264.453 88.4701 266.132 88.4701H380.94ZM380.94 85.5801H266.132C262.853 85.5801 260.194 88.2401 260.194 91.5201V162.32C260.194 165.6 262.853 168.26 266.132 168.26H380.94C384.219 168.26 386.878 165.6 386.878 162.32V91.5201C386.878 88.2401 384.219 85.5801 380.94 85.5801Z" fill="#D9D9D9"/>
  <path d="M298.733 95.3203H269.641V157.09H298.733V95.3203Z" fill="#D9D9D9"/>
  <path fill-rule="evenodd" clip-rule="evenodd" d="M373.842 97.5098C374.411 97.5098 374.872 97.9709 374.872 98.5398V130.28C374.872 130.849 374.411 131.31 373.842 131.31C373.273 131.31 372.812 130.849 372.812 130.28V98.5398C372.812 97.9709 373.273 97.5098 373.842 97.5098Z" fill="#16B378"/>
  <path fill-rule="evenodd" clip-rule="evenodd" d="M306.601 98.6396C306.601 97.9272 307.178 97.3496 307.891 97.3496H373.272C373.984 97.3496 374.562 97.9272 374.562 98.6396C374.562 99.3521 373.984 99.9296 373.272 99.9296H307.891C307.178 99.9296 306.601 99.3521 306.601 98.6396Z" fill="#16B378"/>
  <path fill-rule="evenodd" clip-rule="evenodd" d="M306.601 109.22C306.601 108.507 307.178 107.93 307.891 107.93H373.272C373.984 107.93 374.562 108.507 374.562 109.22C374.562 109.932 373.984 110.51 373.272 110.51H307.891C307.178 110.51 306.601 109.932 306.601 109.22Z" fill="#16B378"/>
  <path fill-rule="evenodd" clip-rule="evenodd" d="M306.601 119.8C306.601 119.087 307.178 118.51 307.891 118.51H373.272C373.984 118.51 374.562 119.087 374.562 119.8C374.562 120.512 373.984 121.09 373.272 121.09H307.891C307.178 121.09 306.601 120.512 306.601 119.8Z" fill="#16B378"/>
  <path fill-rule="evenodd" clip-rule="evenodd" d="M306.601 130.38C306.601 129.667 307.178 129.09 307.891 129.09H373.272C373.984 129.09 374.562 129.667 374.562 130.38C374.562 131.092 373.984 131.67 373.272 131.67H307.891C307.178 131.67 306.601 131.092 306.601 130.38Z" fill="#16B378"/>
  <path fill-rule="evenodd" clip-rule="evenodd" d="M357.267 97.5098C357.836 97.5098 358.297 97.9709 358.297 98.5398V130.28C358.297 130.849 357.836 131.31 357.267 131.31C356.698 131.31 356.237 130.849 356.237 130.28V98.5398C356.237 97.9709 356.698 97.5098 357.267 97.5098Z" fill="#16B378"/>
  <path fill-rule="evenodd" clip-rule="evenodd" d="M340.692 97.5098C341.26 97.5098 341.722 97.9709 341.722 98.5398V130.28C341.722 130.849 341.26 131.31 340.692 131.31C340.123 131.31 339.662 130.849 339.662 130.28V98.5398C339.662 97.9709 340.123 97.5098 340.692 97.5098Z" fill="#16B378"/>
  <path fill-rule="evenodd" clip-rule="evenodd" d="M307.541 97.5098C308.11 97.5098 308.571 97.9709 308.571 98.5398V130.28C308.571 130.849 308.11 131.31 307.541 131.31C306.972 131.31 306.511 130.849 306.511 130.28V98.5398C306.511 97.9709 306.972 97.5098 307.541 97.5098Z" fill="#16B378"/>
  <path fill-rule="evenodd" clip-rule="evenodd" d="M324.116 97.5098C324.685 97.5098 325.146 97.9709 325.146 98.5398V130.28C325.146 130.849 324.685 131.31 324.116 131.31C323.548 131.31 323.086 130.849 323.086 130.28V98.5398C323.086 97.9709 323.548 97.5098 324.116 97.5098Z" fill="#16B378"/>
  <path d="M336.352 139.62H308.07C307.517 139.62 307.07 140.068 307.07 140.62V144.16C307.07 144.712 307.517 145.16 308.07 145.16H336.352C336.904 145.16 337.351 144.712 337.351 144.16V140.62C337.351 140.068 336.904 139.62 336.352 139.62Z" fill="#D9D9D9"/>
  <path d="M336.223 150.07H307.941C307.389 150.07 306.941 150.518 306.941 151.07V154.61C306.941 155.163 307.389 155.61 307.941 155.61H336.223C336.775 155.61 337.222 155.163 337.222 154.61V151.07C337.222 150.518 336.775 150.07 336.223 150.07Z" fill="#D9D9D9"/>
  <path d="M373.922 139.5H345.64C345.088 139.5 344.64 139.948 344.64 140.5V144.04C344.64 144.592 345.088 145.04 345.64 145.04H373.922C374.474 145.04 374.922 144.592 374.922 144.04V140.5C374.922 139.948 374.474 139.5 373.922 139.5Z" fill="#D9D9D9"/>
  <path d="M373.791 149.96H345.509C344.957 149.96 344.509 150.408 344.509 150.96V154.5C344.509 155.052 344.957 155.5 345.509 155.5H373.791C374.343 155.5 374.791 155.052 374.791 154.5V150.96C374.791 150.408 374.343 149.96 373.791 149.96Z" fill="#D9D9D9"/>
  <ellipse cx="325.753" cy="182.5" rx="65" ry="2.5" fill="#009058"/>
  <ellipse cx="387.253" cy="232.5" rx="32.5" ry="4.5" fill="#009058"/>
  <path d="M381.095 227.609L375.536 227.609L372.892 207.092L381.097 207.093L381.095 227.609Z" fill="#FFF3DE"/>
  <path d="M371.027 226.241H381.096V233.08H364.687C364.687 232.182 364.851 231.293 365.17 230.463C365.488 229.633 365.955 228.879 366.544 228.244C367.133 227.609 367.832 227.105 368.601 226.762C369.37 226.418 370.194 226.241 371.027 226.241Z" fill="#494949"/>
  <path d="M409.811 227.609L404.251 227.609L401.608 207.092L409.812 207.093L409.811 227.609Z" fill="#FFF3DE"/>
  <path d="M399.743 226.241H409.812V233.08H393.403C393.403 232.182 393.567 231.293 393.885 230.463C394.204 229.633 394.671 228.879 395.26 228.244C395.848 227.609 396.547 227.105 397.317 226.762C398.086 226.418 398.91 226.241 399.743 226.241Z" fill="#494949"/>
  <path d="M393.404 83.9885C399.445 83.9885 404.343 79.0894 404.343 73.046C404.343 67.0027 399.445 62.1035 393.404 62.1035C387.362 62.1035 382.464 67.0027 382.464 73.046C382.464 79.0894 387.362 83.9885 393.404 83.9885Z" fill="#FFF3DE"/>
  <path d="M355.153 145.994C355.234 145.355 355.453 144.741 355.795 144.195C356.138 143.65 356.595 143.186 357.135 142.838C357.676 142.489 358.286 142.263 358.922 142.176C359.559 142.09 360.206 142.144 360.82 142.336L367.252 134.598L372.891 137.374L363.655 148.173C363.265 149.186 362.519 150.02 361.558 150.518C360.597 151.016 359.487 151.142 358.439 150.874C357.392 150.605 356.478 149.96 355.873 149.061C355.267 148.161 355.011 147.07 355.153 145.994Z" fill="#FFF3DE"/>
  <path d="M408.871 153.947C408.593 153.371 408.447 152.743 408.445 152.106C408.442 151.47 408.583 150.84 408.856 150.262C409.129 149.685 409.529 149.172 410.027 148.762C410.526 148.351 411.11 148.052 411.739 147.886L413.049 138.018L419.384 137.333L417.333 151.243C417.549 152.294 417.363 153.385 416.81 154.311C416.257 155.237 415.375 155.932 414.332 156.265C413.289 156.599 412.157 156.547 411.15 156.119C410.144 155.692 409.333 154.919 408.871 153.947Z" fill="#FFF3DE"/>
  <path d="M402.753 94.344C403.34 93.5705 404.115 92.9697 405 92.602C405.885 92.2344 406.848 92.113 407.794 92.2501C408.739 92.3872 409.632 92.7779 410.384 93.3828C411.135 93.9877 411.717 94.7855 412.072 95.6955L421.114 118.867C422.038 121.235 422.332 123.812 421.967 126.336L419.022 146.702C418.984 146.965 418.891 147.216 418.75 147.438C418.609 147.661 418.422 147.85 418.204 147.991C417.985 148.133 417.739 148.224 417.482 148.26C417.226 148.295 416.965 148.272 416.718 148.194L412.838 146.971C412.436 146.844 412.09 146.577 411.861 146.215C411.631 145.854 411.532 145.421 411.581 144.992C412.951 133.002 411.141 120.855 406.343 109.834L402.08 100.043C401.679 99.1198 401.529 98.1017 401.647 97.0977C401.766 96.0938 402.148 95.1419 402.753 94.344Z" fill="#F9AE41"/>
  <path d="M404.141 87.5C402.574 88.1584 395.093 87.5365 393.393 87.5C391.928 87.4685 392.696 82.4644 391.974 80.6099C391.63 79.6725 391.582 78.6532 391.835 77.6878C392.089 76.7223 392.632 75.8565 393.393 75.2057C394.829 74.0249 394.108 71.4922 392.505 70.5477C390.902 69.6032 388.893 69.787 387.052 70.0687C385.21 70.3504 383.261 70.6891 381.535 69.9906C378.843 68.901 377.68 65.367 378.763 62.6859C379.846 60.0048 382.709 58.2965 385.604 58.0399C388.499 57.7833 391.387 58.7922 393.872 60.2916C395.535 59.9383 397.254 59.9389 398.917 60.2932C400.58 60.6476 402.149 61.3477 403.52 62.3475C404.892 63.3474 406.034 64.6244 406.874 66.0946C407.713 67.5647 408.23 69.1948 408.391 70.8777C408.551 72.5606 409.139 76 409.139 77.5C409.139 80.5 408.391 83 408.391 85.5C406.874 86.5 405.707 86.8415 404.141 87.5Z" fill="#494949"/>
  <path d="M410.529 144.885L412.547 220.266C412.554 220.517 412.508 220.767 412.412 221C412.316 221.233 412.172 221.443 411.989 221.619C411.806 221.794 411.588 221.931 411.349 222.02C411.11 222.109 410.855 222.148 410.6 222.135L403.952 221.801C403.528 221.78 403.124 221.616 402.808 221.336C402.492 221.057 402.283 220.679 402.216 220.266L394.308 171.306C394.274 171.097 394.167 170.905 394.006 170.765C393.844 170.625 393.637 170.544 393.422 170.538C393.207 170.531 392.995 170.599 392.825 170.729C392.655 170.859 392.536 171.043 392.489 171.25L381.785 218.39C381.727 218.642 381.616 218.879 381.459 219.086C381.302 219.292 381.102 219.464 380.872 219.589C380.642 219.714 380.389 219.789 380.127 219.81C379.866 219.831 379.603 219.797 379.355 219.711L372.757 219.314C372.375 219.18 372.049 218.927 371.827 218.594C371.605 218.26 371.501 217.864 371.53 217.466L377.29 144.172L410.529 144.885Z" fill="#494949"/>
  <path d="M412.452 109.413C413.543 97.9959 405.172 87.6691 393.764 86.8568C388.848 86.5067 381.217 86.3816 378.701 92.8428C371.123 112.306 384.389 111.833 379.818 128.697C375.248 145.56 371.211 146.526 377.482 147.744C383.754 148.962 411.956 156.15 410.798 144.281C410.086 136.985 411.362 120.802 412.452 109.413Z" fill="#F9AE41"/>
  <path d="M396.419 91.1956C397.324 90.8495 398.307 90.7454 399.266 90.8938C400.226 91.0421 401.129 91.4377 401.884 92.0406C402.64 92.6434 403.22 93.4323 403.568 94.3274C403.916 95.2226 404.018 96.1925 403.864 97.1391L400.282 119.235C399.67 123.013 398.051 126.563 395.591 129.521L383.957 143.513C383.79 143.714 383.581 143.877 383.345 143.991C383.108 144.104 382.849 144.166 382.586 144.172C382.323 144.178 382.061 144.128 381.82 144.025C381.578 143.922 381.362 143.769 381.186 143.576L378.422 140.547C378.136 140.233 377.97 139.831 377.954 139.409C377.938 138.987 378.072 138.573 378.333 138.239L379.147 137.196C385.915 128.527 390.185 118.215 391.505 107.349L392.929 95.6291C393.049 94.6472 393.436 93.7158 394.051 92.9348C394.666 92.1538 395.484 91.5526 396.419 91.1956Z" fill="#F9AE41"/>
  <ellipse cx="106.273" cy="230.5" rx="32.5" ry="4.5" fill="#009058"/>
  <path d="M86.6951 145.57L68.7534 122.001L75.476 100.606C75.9686 95.2274 79.2926 93.7254 79.434 93.664L79.6498 93.5703L85.4997 109.367L81.2045 120.966L91.7469 138.92L86.6951 145.57Z" fill="#262633"/>
  <path d="M148.539 73.6088C147.877 73.6897 147.241 73.9113 146.677 74.2578C146.112 74.6043 145.632 75.0674 145.27 75.6144C144.909 76.1614 144.675 76.779 144.585 77.4238C144.494 78.0685 144.55 78.7247 144.748 79.3461L136.734 85.8561L139.603 91.5703L150.788 82.222C151.837 81.8284 152.701 81.0734 153.217 80.1002C153.733 79.1269 153.864 78.0029 153.587 76.9412C153.31 75.8795 152.643 74.9539 151.713 74.3397C150.782 73.7255 149.653 73.4655 148.539 73.6088Z" fill="#FFF3DE"/>
  <path d="M149.73 85.0588L127.768 104.57L106.042 99.5467C100.673 99.4669 98.9261 96.2962 98.8543 96.1611L98.7446 95.955L113.945 88.9794L125.773 92.3458L142.747 80.5703L149.73 85.0588Z" fill="#262633"/>
  <path d="M110.743 225.57L116.839 225.57L119.739 202.57L110.742 202.571L110.743 225.57Z" fill="#FFF3DE"/>
  <path d="M128.736 231.57L110.741 231.571L110.741 224.571L123.687 224.571C125.026 224.57 126.31 225.106 127.257 226.059C128.204 227.012 128.736 228.305 128.736 229.653L128.736 231.57Z" fill="#494949"/>
  <path d="M87.7483 225.57L93.8447 225.57L96.745 202.57L87.7476 202.571L87.7483 225.57Z" fill="#FFF3DE"/>
  <path d="M104.744 231.57L86.7488 231.571L86.7484 224.571L99.6948 224.571C100.358 224.571 101.014 224.702 101.627 224.957C102.239 225.213 102.796 225.587 103.265 226.059C103.734 226.531 104.105 227.091 104.359 227.708C104.613 228.325 104.744 228.986 104.744 229.653L104.744 231.57Z" fill="#494949"/>
  <path d="M85.7485 142.57L86.2213 176.274L86.6945 220.57L97.0966 219.607L102.298 158.459L108.918 219.607H119.657L120.739 157.978L116.956 144.496L85.7485 142.57Z" fill="#494949"/>
  <path d="M105.985 147.57C94.4276 147.571 83.7888 142.345 83.6452 142.274L83.5259 142.214L82.556 118.961C82.2747 118.139 76.7364 101.925 75.7984 96.7718C74.8481 91.5504 88.6216 86.968 90.2942 86.4322L90.6738 82.2318L106.109 80.5703L108.065 85.9448L113.603 88.0191C114.23 88.2544 114.75 88.7116 115.063 89.3041C115.376 89.8965 115.46 90.583 115.3 91.2335L112.222 103.736L119.739 145.102L118.121 145.172C114.242 146.922 110.055 147.57 105.985 147.57Z" fill="#262633"/>
  <path d="M104.926 76.5988C110.252 73.6799 112.212 66.9901 109.304 61.6567C106.396 56.3234 99.7203 54.3661 94.3939 57.2851C89.0674 60.204 87.1071 66.8938 90.0153 72.2272C92.9236 77.5605 99.5991 79.5178 104.926 76.5988Z" fill="#FFF3DE"/>
  <path d="M90.0621 77.4299C92.1369 79.6416 95.9899 78.4543 96.2602 75.4329C96.2814 75.1983 96.2799 74.9622 96.2557 74.728C96.1161 73.3896 95.3435 72.1745 95.5285 70.7614C95.5704 70.4097 95.7013 70.0746 95.9089 69.7877C97.5622 67.5722 101.443 70.7786 103.003 68.773C103.96 67.5432 102.836 65.6069 103.57 64.2324C104.539 62.4182 107.409 63.3132 109.209 62.3196C111.212 61.2142 111.092 58.1394 109.773 56.2691C108.166 53.9882 105.347 52.7712 102.563 52.5958C99.7797 52.4204 97.0152 53.1734 94.4164 54.1869C91.4637 55.3385 88.5356 56.9299 86.7185 59.5282C84.5088 62.688 84.2961 66.936 85.4012 70.6307C86.0735 72.8783 88.3679 75.6239 90.0621 77.4299Z" fill="#494949"/>
  </svg>
  