<svg width="40" height="40" viewBox="0 0 40 40" fill="none" xmlns="http://www.w3.org/2000/svg">
  <path fill-rule="evenodd" clip-rule="evenodd" d="M9.16699 9.99967C8.70723 9.99967 8.33366 10.3732 8.33366 10.833V29.1663C8.33366 29.6261 8.70723 29.9997 9.16699 29.9997H30.8337C31.2934 29.9997 31.667 29.6261 31.667 29.1663V10.833C31.667 10.3732 31.2934 9.99967 30.8337 9.99967H9.16699ZM6.66699 10.833C6.66699 9.45277 7.78675 8.33301 9.16699 8.33301H30.8337C32.2139 8.33301 33.3337 9.45277 33.3337 10.833V29.1663C33.3337 30.5466 32.2139 31.6663 30.8337 31.6663H9.16699C7.78675 31.6663 6.66699 30.5466 6.66699 29.1663V10.833Z" fill="#16B378"/>
  <path fill-rule="evenodd" clip-rule="evenodd" d="M10.1884 13.6387C10.4798 13.2825 11.0049 13.23 11.3611 13.5214L20 20.5896L28.639 13.5214C28.9952 13.23 29.5202 13.2825 29.8117 13.6387C30.1031 13.9949 30.0506 14.5199 29.6944 14.8113L20.5277 22.3113C20.2208 22.5625 19.7793 22.5625 19.4723 22.3113L10.3057 14.8113C9.94946 14.5199 9.89695 13.9949 10.1884 13.6387Z" fill="#16B378"/>
  </svg>
  