<svg width="80" height="80" viewBox="0 0 80 80" fill="none" xmlns="http://www.w3.org/2000/svg">
  <g clip-path="url(#clip0_660_335)">
  <path d="M61.6668 30.1887C61.6668 18.1148 51.9552 8.33301 40.0002 8.33301C28.0451 8.33301 18.3335 18.1148 18.3335 30.1887C18.3335 42.2626 22.1979 50.0442 40.0002 71.6663C58.1498 49.8982 61.6668 42.2626 61.6668 30.1887Z" fill="#1482F5"/>
  <path d="M40.0003 46.3214C48.3934 46.3214 55.1973 39.4581 55.1973 30.9918C55.1973 22.5254 48.3934 15.6621 40.0003 15.6621C31.6072 15.6621 24.8032 22.5254 24.8032 30.9918C24.8032 39.4581 31.6072 46.3214 40.0003 46.3214Z" fill="#E0F0FF"/>
  <path d="M47.3529 29.5754L36.4978 23.2538C35.5426 22.699 34.3413 23.3998 34.3413 24.5093V37.1526C34.3413 38.2622 35.5426 38.963 36.4978 38.4082L47.3529 32.0866C48.3081 31.5318 48.3081 30.1302 47.3529 29.5754Z" fill="#1482F5"/>
  <path d="M41.6793 51.0954C41.2016 51.0954 40.7819 50.7158 40.7385 50.234C40.6951 49.7084 41.0714 49.2412 41.5924 49.1974C42.4753 49.1245 43.3437 48.9785 44.1976 48.7741C44.7042 48.6573 45.2108 48.9639 45.341 49.4748C45.4568 49.9858 45.1529 50.4968 44.6463 50.6282C43.7055 50.8618 42.7358 51.0224 41.7661 51.11C41.7372 51.11 41.7082 51.11 41.6793 51.11V51.0954ZM37.5109 51.0078C37.5109 51.0078 37.4241 51.0078 37.3807 51.0078C36.4109 50.8764 35.4557 50.672 34.5149 50.4092C34.0084 50.2632 33.7189 49.7376 33.8636 49.2267C34.0084 48.7157 34.5294 48.4237 35.036 48.5697C35.8754 48.8179 36.7438 48.9931 37.6267 49.1099C38.1478 49.1829 38.5096 49.6646 38.4372 50.1756C38.3793 50.6574 37.9741 51.0078 37.4965 51.0078H37.5109ZM48.337 49.2121C47.9897 49.2121 47.6568 49.0223 47.4976 48.6865C47.266 48.2193 47.4541 47.6499 47.9318 47.4163C48.7133 47.0221 49.4804 46.5695 50.2041 46.0585C50.6383 45.7519 51.2172 45.8687 51.5212 46.2921C51.8251 46.7301 51.7093 47.3141 51.2896 47.6207C50.4791 48.1755 49.6396 48.6865 48.7712 49.1245C48.641 49.1974 48.4962 49.2267 48.3515 49.2267L48.337 49.2121ZM30.94 48.8325C30.7808 48.8325 30.6361 48.7887 30.4913 48.7157C29.6374 48.2485 28.8124 47.7083 28.0453 47.1097C27.6256 46.7885 27.5532 46.1899 27.8716 45.7811C28.1901 45.3577 28.7835 45.2847 29.1887 45.6059C29.8834 46.1461 30.6361 46.6279 31.4032 47.0513C31.8663 47.2995 32.0255 47.8835 31.7795 48.3507C31.6058 48.6719 31.2874 48.8471 30.9545 48.8471L30.94 48.8325ZM53.8803 45.0219C53.6488 45.0219 53.4172 44.9343 53.2435 44.7738C52.8527 44.4234 52.8382 43.8102 53.1856 43.4306C53.779 42.7736 54.329 42.0728 54.8211 41.3428C55.1106 40.9048 55.704 40.788 56.1382 41.0946C56.5724 41.3866 56.6882 41.9852 56.3842 42.4232C55.8342 43.2408 55.2264 44.0146 54.5751 44.73C54.3869 44.9343 54.1409 45.0365 53.8803 45.0365V45.0219ZM25.5848 44.4088C25.3099 44.4088 25.0493 44.292 24.8612 44.073C24.2388 43.3284 23.6599 42.5254 23.1533 41.6932C22.8783 41.2406 23.0231 40.6566 23.4573 40.3793C23.9059 40.1019 24.4849 40.2479 24.7599 40.6858C25.223 41.445 25.7441 42.175 26.3085 42.8466C26.6414 43.2554 26.598 43.854 26.1927 44.1898C26.019 44.3358 25.8019 44.4088 25.5848 44.4088ZM57.5421 39.1091C57.4263 39.1091 57.3105 39.0945 57.1947 39.0507C56.7026 38.8609 56.4711 38.3061 56.6592 37.8097C56.9776 36.9775 57.2382 36.1308 57.4408 35.2694C57.5566 34.7584 58.0631 34.4372 58.5697 34.554C59.0763 34.6708 59.3947 35.1818 59.2789 35.6928C59.0618 36.6417 58.7723 37.5907 58.425 38.5105C58.2802 38.8901 57.9184 39.1091 57.5421 39.1091ZM22.1691 38.3353C21.7783 38.3353 21.4165 38.0871 21.2718 37.6929C20.9534 36.7585 20.7073 35.8096 20.5336 34.846C20.4468 34.335 20.7797 33.8386 21.2863 33.7364C21.7928 33.6342 22.2849 33.9846 22.3862 34.4956C22.5454 35.3716 22.7625 36.233 23.052 37.0797C23.2257 37.5761 22.9652 38.1163 22.4586 38.2915C22.3573 38.3207 22.256 38.3499 22.1547 38.3499L22.1691 38.3353ZM58.8447 32.2034C58.3237 32.2034 57.9039 31.8093 57.9039 31.2837V31.2107C57.9039 30.3201 57.846 29.4295 57.7158 28.5535C57.6434 28.0279 57.9908 27.5462 58.5118 27.4732C59.0184 27.3856 59.5105 27.7505 59.5828 28.2761C59.7276 29.2397 59.7999 30.2325 59.7999 31.2107C59.7999 31.7363 59.3802 32.2034 58.8592 32.2034H58.8447ZM21.1705 31.4297C21.1705 31.4297 21.1415 31.4297 21.127 31.4297C20.606 31.4151 20.2007 30.9625 20.2152 30.4369C20.2586 29.4587 20.36 28.4659 20.5336 27.517C20.6349 27.006 21.127 26.6556 21.6336 26.7578C22.1402 26.86 22.4875 27.3564 22.3862 27.8673C22.227 28.7287 22.1257 29.6193 22.0968 30.5099C22.0823 31.0209 21.6626 31.4297 21.156 31.4297H21.1705ZM57.571 25.2978C57.1947 25.2978 56.8329 25.0642 56.6882 24.6846C56.3698 23.8524 55.9934 23.0495 55.5592 22.2757C55.2987 21.8231 55.4579 21.2391 55.9211 20.9763C56.3698 20.7135 56.9487 20.8741 57.2092 21.3267C57.6868 22.1735 58.1066 23.0787 58.4684 23.9838C58.6565 24.4802 58.4105 25.0204 57.9329 25.2102C57.8171 25.254 57.7013 25.2686 57.5855 25.2686L57.571 25.2978ZM22.7046 24.6262C22.5744 24.6262 22.4586 24.597 22.3283 24.5532C21.8507 24.3488 21.6336 23.7794 21.8362 23.2977C22.227 22.3925 22.6757 21.5165 23.1967 20.6843C23.4717 20.2317 24.0507 20.1003 24.4993 20.3777C24.948 20.6551 25.0783 21.2391 24.8033 21.6917C24.3401 22.4363 23.9204 23.2393 23.573 24.0422C23.4138 24.4072 23.0665 24.6116 22.7046 24.6116V24.6262ZM53.9238 19.3703C53.6632 19.3703 53.4172 19.2681 53.229 19.0637C52.6356 18.4068 51.9988 17.7936 51.3041 17.2242C50.8988 16.8884 50.8409 16.2898 51.1738 15.881C51.5067 15.4722 52.1001 15.4138 52.5054 15.7496C53.258 16.3628 53.9672 17.049 54.6329 17.779C54.9803 18.1732 54.9514 18.7718 54.5751 19.1221C54.4014 19.2827 54.1698 19.3703 53.9382 19.3703H53.9238ZM26.569 18.8302C26.323 18.8302 26.0914 18.7426 25.9033 18.5528C25.527 18.1878 25.527 17.5746 25.9033 17.2096C26.5835 16.5088 27.3217 15.8518 28.1032 15.2678C28.5229 14.9466 29.1164 15.0342 29.4203 15.4576C29.7387 15.881 29.6519 16.4796 29.2321 16.7862C28.5374 17.3118 27.8572 17.9104 27.2493 18.5382C27.0611 18.728 26.8151 18.8156 26.5835 18.8156L26.569 18.8302ZM48.4094 15.151C48.2647 15.151 48.1199 15.1218 47.9897 15.0488C47.2081 14.6547 46.3831 14.3189 45.5437 14.0415C45.0516 13.8809 44.7766 13.3407 44.9358 12.8443C45.095 12.3479 45.616 12.0705 46.1226 12.2311C47.0489 12.5377 47.9607 12.9173 48.8291 13.3553C49.2923 13.5889 49.4804 14.1583 49.2488 14.6401C49.0752 14.9758 48.7568 15.1656 48.4094 15.1656V15.151ZM32.2426 14.8444C31.8808 14.8444 31.5334 14.6401 31.3742 14.2897C31.1571 13.8079 31.3742 13.2531 31.8518 13.0341C32.7347 12.6253 33.661 12.2895 34.6018 12.0267C35.1083 11.8807 35.6294 12.1727 35.7741 12.6837C35.9189 13.1947 35.6294 13.7203 35.1228 13.8663C34.2834 14.0999 33.4439 14.4211 32.6334 14.786C32.5031 14.8444 32.3729 14.8736 32.2426 14.8736V14.8444ZM41.7516 13.2385C41.7516 13.2385 41.6937 13.2385 41.6648 13.2385C41.1148 13.1801 40.5648 13.1363 40.0003 13.1655C39.6675 13.1655 39.349 13.1655 39.0306 13.1947C38.5675 13.2385 38.0609 12.8151 38.032 12.2895C38.003 11.7639 38.4083 11.3113 38.9293 11.2821C39.2912 11.2675 39.6675 11.2529 40.0293 11.2529C40.6372 11.2529 41.2451 11.2821 41.8529 11.3405C42.374 11.3843 42.7503 11.8515 42.7069 12.3771C42.6635 12.8735 42.2437 13.2385 41.7661 13.2385H41.7516Z" fill="white"/>
  </g>
  <defs>
  <clipPath id="clip0_660_335">
  <rect width="43.3333" height="63.3333" fill="white" transform="translate(18.3335 8.33301)"/>
  </clipPath>
  </defs>
  </svg>
  