<svg width="40" height="40" viewBox="0 0 40 40" fill="none" xmlns="http://www.w3.org/2000/svg">
<g clip-path="url(#clip0_165_3120)">
<path d="M36.2401 28.3802C36.0301 28.1002 35.7201 27.8902 35.3801 27.7902L33.2901 27.2902C33.1901 27.2602 33.1101 27.2102 33.0401 27.1402C32.9701 27.0702 32.9201 26.9702 32.9101 26.9102L32.8201 26.2202C33.1101 25.9602 33.5401 25.5402 33.7801 25.1402C33.8501 25.0202 33.9101 24.9002 33.9701 24.7802C34.0101 24.6902 34.0501 24.6002 34.0901 24.5102C34.0901 24.5002 34.0901 24.4802 34.1101 24.4702C34.1501 24.3802 34.1801 24.2902 34.2101 24.2002C34.3301 23.8302 34.3901 23.4502 34.3901 23.0802V21.5902C34.4001 20.5702 34.0301 19.6002 33.3401 18.8602C32.6501 18.1102 31.7101 17.6702 30.6801 17.6102C30.1501 17.6002 29.6601 17.6802 29.1801 17.8702C28.7001 18.0602 28.2701 18.3302 27.9001 18.6902C27.5301 19.0502 27.2401 19.4702 27.0401 19.9502C26.8401 20.4302 26.7401 20.9302 26.7401 21.4402V23.0802C26.7401 23.4602 26.8001 23.8402 26.9101 24.2002C26.9401 24.2902 26.9801 24.3802 27.0101 24.4702C27.0101 24.4802 27.0101 24.5002 27.0301 24.5102C27.0701 24.6002 27.1101 24.6902 27.1501 24.7802C27.2101 24.9002 27.2701 25.0302 27.3501 25.1502C27.6601 25.6402 27.8501 25.8602 28.2401 26.2102L28.1601 26.6302C28.1401 26.7302 28.0901 26.8202 28.0301 26.8902C27.9601 26.9602 27.8701 27.0202 27.7401 27.0602L25.7501 27.7902C25.4101 27.8902 25.1001 28.1002 24.8901 28.3802C24.8901 28.3802 24.8901 28.3802 24.8901 28.3902C25.2901 28.5002 25.7901 28.6402 26.2601 28.7702L28.0901 28.1002C28.3801 28.0202 28.6401 27.8602 28.8501 27.6302C29.0501 27.4102 29.1901 27.1302 29.2501 26.8402L29.4601 25.7802L29.2101 25.5702C28.8101 25.2302 28.6501 25.0702 28.4401 24.7702C28.3901 24.7002 28.3401 24.6302 28.2901 24.5402C28.2901 24.5302 28.2801 24.5102 28.2701 24.5002C28.2701 24.4902 28.2601 24.4702 28.2501 24.4602C28.2001 24.3702 28.1701 24.2802 28.1301 24.1902C27.9701 23.8402 27.8601 23.4602 27.8601 23.0702V21.4302C27.8601 21.0702 27.9301 20.7102 28.0801 20.3702C28.2201 20.0302 28.4301 19.7302 28.6901 19.4702C28.9501 19.2102 29.2601 19.0202 29.6001 18.8802C29.9201 18.7602 30.2501 18.6902 30.5801 18.6902C30.6101 18.6902 30.6301 18.6902 30.6601 18.6902C31.3901 18.7302 32.0701 19.0502 32.5701 19.5902C33.0701 20.1302 33.3401 20.8202 33.3301 21.5602V23.0602C33.3301 23.4402 33.2201 23.8202 33.0501 24.1802C33.0101 24.2702 32.9801 24.3602 32.9301 24.4502C32.9301 24.4602 32.9201 24.4802 32.9101 24.4902C32.9101 24.5102 32.9001 24.5202 32.8901 24.5402C32.8501 24.6102 32.7901 24.6802 32.7301 24.7602C32.4601 25.0902 32.0701 25.4402 31.9601 25.5302L31.6901 25.7202L31.8701 27.0702C31.9301 27.3702 32.0701 27.6402 32.2701 27.8702C32.4801 28.0902 32.7401 28.2502 33.0501 28.3402L35.1301 28.8302C35.2401 28.8602 35.3401 28.9302 35.4101 29.0202C35.4801 29.1102 35.5201 29.2302 35.5201 29.3502V31.8002H28.6301C28.6401 32.2402 28.6401 32.6802 28.6401 32.9002H35.5201C35.8101 32.9002 36.0901 32.7902 36.3001 32.5802C36.5101 32.3702 36.6201 32.1002 36.6201 31.8102V29.3502C36.6201 28.9902 36.5001 28.6402 36.2901 28.3602L36.2401 28.3802Z" fill="#16B378"/>
<path d="M12.06 31.73H5.10004V29.28C5.10004 29.16 5.14004 29.05 5.21004 28.95C5.28004 28.86 5.38004 28.79 5.53004 28.74L7.52004 28.01C7.81004 27.93 8.07004 27.77 8.28004 27.54C8.49004 27.32 8.62004 27.04 8.68004 26.75L8.89004 25.69L8.64004 25.48C8.28004 25.18 8.12004 25.02 7.93004 24.77C7.87004 24.69 7.81004 24.6 7.75004 24.5C7.75004 24.48 7.73004 24.47 7.72004 24.46C7.67004 24.38 7.64004 24.28 7.60004 24.2C7.41004 23.82 7.29004 23.41 7.29004 22.99V21.35C7.29004 20.98 7.36004 20.62 7.51004 20.29C7.65004 19.95 7.86004 19.65 8.12004 19.39C8.38004 19.13 8.69004 18.94 9.04004 18.8C9.36004 18.68 9.69004 18.61 10.02 18.61C10.05 18.61 10.07 18.61 10.1 18.61C10.83 18.65 11.51 18.97 12.01 19.51C12.51 20.05 12.78 20.74 12.76 21.48V22.98C12.76 23.39 12.66 23.8 12.46 24.19C12.42 24.28 12.37 24.37 12.32 24.46C12.32 24.47 12.3 24.49 12.29 24.5C12.23 24.59 12.17 24.68 12.09 24.77C11.83 25.07 11.49 25.37 11.39 25.45L11.12 25.64L11.3 26.99C11.36 27.29 11.5 27.56 11.7 27.78C11.91 28 12.17 28.16 12.48 28.25L14.22 28.66C14.66 28.49 15.16 28.3 15.58 28.14C15.38 27.93 15.14 27.76 14.85 27.68L12.76 27.18C12.66 27.15 12.58 27.1 12.51 27.03C12.44 26.96 12.4 26.87 12.38 26.8L12.29 26.11C12.58 25.85 13.01 25.43 13.25 25.03C13.3 24.94 13.34 24.85 13.39 24.76C13.44 24.67 13.49 24.58 13.53 24.49C13.53 24.48 13.53 24.46 13.55 24.45C13.59 24.36 13.62 24.27 13.65 24.18C13.78 23.78 13.86 23.38 13.86 22.97V21.48C13.88 20.46 13.5 19.49 12.81 18.75C12.12 18 11.18 17.56 10.15 17.5C9.63004 17.5 9.13004 17.57 8.65004 17.76C8.17004 17.95 7.74004 18.22 7.37004 18.58C7.00004 18.94 6.71004 19.36 6.51004 19.84C6.31004 20.31 6.21004 20.82 6.21004 21.33V22.97C6.21004 23.39 6.29004 23.79 6.42004 24.18C6.45004 24.27 6.48004 24.36 6.52004 24.45C6.52004 24.46 6.52004 24.48 6.54004 24.49C6.58004 24.58 6.63004 24.67 6.68004 24.76C6.73004 24.85 6.77004 24.95 6.83004 25.04C7.14004 25.53 7.33004 25.76 7.72004 26.1L7.64004 26.52C7.62004 26.62 7.57004 26.71 7.51004 26.78C7.44004 26.85 7.36004 26.91 7.22004 26.95L5.23004 27.68C4.89004 27.78 4.58004 27.99 4.37004 28.27C4.16004 28.55 4.04004 28.9 4.04004 29.26V31.72C4.04004 32.01 4.15004 32.29 4.36004 32.49C4.57004 32.7 4.84004 32.81 5.14004 32.81H12.09C12.09 32.57 12.09 32.14 12.1 31.71L12.06 31.73Z" fill="#16B378"/>
<path d="M14.89 9.42032C14.91 9.51032 14.93 9.60032 14.95 9.69032C14.95 9.70032 14.95 9.72032 14.95 9.73032C14.95 9.76032 14.95 9.78032 14.97 9.81032C14.99 9.87032 15.02 9.94032 15.04 10.0003C15.07 10.0803 15.1 10.1503 15.13 10.2303C15.27 10.5803 15.43 10.9403 15.64 11.2803C15.91 11.7303 16.22 12.1403 16.55 12.5003C16.8 12.7703 17.06 13.0203 17.32 13.2803C17.72 13.6503 18.14 13.9703 18.51 14.2203C18.9 14.4903 19.33 14.7603 19.87 15.0603C19.98 15.1203 20.1 15.1503 20.21 15.1503C20.33 15.1503 20.46 15.1103 20.57 15.0403L20.92 14.8303C21.14 14.7003 21.36 14.5703 21.57 14.4403C21.94 14.2103 22.31 13.9403 22.7 13.6203C23.29 13.1303 23.79 12.6303 24.21 12.1003C24.54 11.6803 24.82 11.2503 25.04 10.8103C25.14 10.6203 25.22 10.4303 25.29 10.2403C25.32 10.1603 25.34 10.0903 25.37 10.0103C25.4 9.92032 25.43 9.83032 25.46 9.74032C25.46 9.73032 25.46 9.71032 25.47 9.70032C25.47 9.67032 25.49 9.63032 25.5 9.60032C25.52 9.54032 25.52 9.49032 25.54 9.43032C25.61 9.15032 25.65 8.89032 25.66 8.64032C25.68 8.34032 25.65 8.05032 25.6 7.77032C25.58 7.68032 25.56 7.59032 25.54 7.50032C25.54 7.50032 25.54 7.50032 25.54 7.49032C25.52 7.40032 25.51 7.31032 25.48 7.23032C25.34 6.81032 25.12 6.43032 24.83 6.09032C24.65 5.88032 24.44 5.72032 24.23 5.57032C24.15 5.51032 24.07 5.45032 23.98 5.40032C23.9 5.36032 23.82 5.33032 23.74 5.30032C23.71 5.29032 23.68 5.27032 23.64 5.26032C23.36 5.15032 23.06 5.06032 22.75 5.03032C22.23 4.99032 21.75 5.06032 21.32 5.26032C21.29 5.27032 21.27 5.29032 21.24 5.30032C21.13 5.35032 21.01 5.41032 20.91 5.48032C20.87 5.51032 20.84 5.54032 20.8 5.57032C20.59 5.73032 20.39 5.91032 20.22 6.14032C20.05 5.92032 19.85 5.73032 19.63 5.57032C19.56 5.52032 19.5 5.46032 19.43 5.42032C19.35 5.37032 19.27 5.34032 19.19 5.30032C19.16 5.29032 19.13 5.27032 19.11 5.26032C18.62 5.04032 18.07 4.97032 17.47 5.06032C17.23 5.10032 17.01 5.17032 16.78 5.26032C16.75 5.27032 16.72 5.29032 16.69 5.30032C16.58 5.35032 16.48 5.39032 16.38 5.45032C16.32 5.49032 16.26 5.53032 16.21 5.57032C16 5.72032 15.8 5.88032 15.63 6.07032C15.42 6.30032 15.25 6.57032 15.11 6.86032C15.05 6.98032 15.01 7.11032 14.97 7.23032C14.94 7.32032 14.91 7.41032 14.88 7.50032C14.88 7.50032 14.88 7.50032 14.88 7.51032C14.86 7.60032 14.84 7.69032 14.83 7.78032C14.82 7.86032 14.79 7.93032 14.79 8.01032C14.76 8.33032 14.76 8.65032 14.81 8.97032C14.83 9.12032 14.88 9.28032 14.92 9.43032L14.89 9.42032ZM15.93 7.76032C15.95 7.67032 15.99 7.58032 16.02 7.49032C16.02 7.49032 16.02 7.49032 16.02 7.48032C16.04 7.42032 16.06 7.37032 16.08 7.31032C16.1 7.27032 16.13 7.24032 16.15 7.21032C16.23 7.06032 16.32 6.91032 16.43 6.78032C16.57 6.62032 16.74 6.49032 16.92 6.38032C17.14 6.25032 17.37 6.17032 17.61 6.13032C17.73 6.11032 17.85 6.10032 17.96 6.10032C18.29 6.10032 18.58 6.18032 18.85 6.34032C19.09 6.48032 19.28 6.67032 19.43 6.93032C19.48 7.01032 19.52 7.12032 19.56 7.21032C19.59 7.27032 19.63 7.33032 19.65 7.40032L19.69 7.48032L19.82 7.76032V7.78032L20.52 7.83032L20.56 7.76032L20.69 7.54032L20.71 7.49032L20.75 7.40032C20.78 7.33032 20.82 7.27032 20.85 7.21032C20.9 7.09032 20.95 6.97032 21.02 6.87032C21.16 6.66032 21.32 6.50032 21.51 6.38032C21.84 6.16032 22.21 6.07032 22.65 6.11032C22.93 6.13032 23.2 6.21032 23.44 6.35032C23.65 6.46032 23.83 6.61032 23.99 6.80032C24.1 6.93032 24.19 7.07032 24.27 7.21032C24.32 7.30032 24.36 7.39032 24.39 7.48032C24.39 7.48032 24.39 7.48032 24.39 7.49032C24.4 7.52032 24.42 7.54032 24.43 7.57032C24.45 7.63032 24.46 7.70032 24.47 7.76032C24.53 8.01032 24.57 8.28032 24.55 8.57032C24.54 8.79032 24.5 9.03032 24.43 9.30032C24.42 9.34032 24.4 9.38032 24.39 9.42032C24.36 9.51032 24.33 9.60032 24.3 9.69032C24.3 9.70032 24.3 9.72032 24.29 9.73032C24.26 9.82032 24.22 9.91032 24.18 10.0003C24.15 10.0803 24.12 10.1503 24.08 10.2303C24.07 10.2503 24.06 10.2803 24.05 10.3003C23.86 10.6803 23.62 11.0503 23.34 11.4103C22.97 11.8803 22.53 12.3303 22 12.7603C21.65 13.0503 21.32 13.2903 20.99 13.5003C20.78 13.6303 20.57 13.7603 20.36 13.8803L20.2 13.9803C19.79 13.7403 19.45 13.5303 19.14 13.3103C18.81 13.0803 18.42 12.8003 18.08 12.4703C17.83 12.2403 17.59 12.0003 17.36 11.7503C17.08 11.4503 16.82 11.1003 16.59 10.7103C16.49 10.5503 16.41 10.3903 16.34 10.2303C16.3 10.1503 16.27 10.0803 16.23 10.0003C16.19 9.91032 16.16 9.82032 16.13 9.73032C16.13 9.72032 16.12 9.70032 16.11 9.69032C16.09 9.62032 16.05 9.55032 16.03 9.48032C16.03 9.46032 16.03 9.44032 16.02 9.42032C15.96 9.22032 15.91 9.01032 15.88 8.80032C15.85 8.57032 15.84 8.34032 15.87 8.11032C15.88 7.99032 15.91 7.87032 15.94 7.76032H15.93Z" fill="#16B378"/>
<path d="M27.2999 30.2497C27.0499 29.9197 26.6899 29.6697 26.2999 29.5597L23.8699 28.9797L23.6799 28.9297C23.5299 28.8897 23.3999 28.8097 23.2999 28.6997C23.1999 28.5897 23.1299 28.4497 23.0999 28.3397L22.9799 27.3997C23.3299 27.0897 23.8999 26.5397 24.2199 26.0197C24.4599 25.6197 24.6499 25.1997 24.7699 24.7697C24.7999 24.6797 24.8099 24.5897 24.8299 24.4997C24.8299 24.4897 24.8299 24.4697 24.8299 24.4597C24.8499 24.3697 24.8799 24.2797 24.8899 24.1897C24.9299 23.9597 24.9499 23.7397 24.9499 23.5097V21.6297C24.9699 20.3897 24.5099 19.2097 23.6699 18.2997C22.8299 17.3897 21.6799 16.8497 20.4299 16.7797C19.8099 16.7597 19.1899 16.8697 18.5999 17.0897C18.0099 17.3197 17.4899 17.6497 17.0399 18.0897C16.5899 18.5297 16.2399 19.0397 15.9899 19.6197C15.7499 20.1997 15.6199 20.8097 15.6199 21.4397V23.4997C15.6199 23.7297 15.6399 23.9597 15.6699 24.1797C15.6799 24.2697 15.7099 24.3597 15.7299 24.4497C15.7299 24.4597 15.7299 24.4797 15.7299 24.4897C15.7499 24.5797 15.7599 24.6697 15.7899 24.7597C15.9099 25.1997 16.0999 25.6297 16.3499 26.0197C16.7499 26.6397 16.9799 26.9197 17.5099 27.3797L17.3899 27.9897C17.3599 28.1397 17.2899 28.2697 17.1899 28.3897C17.0899 28.4997 16.9599 28.5797 16.7699 28.6297H16.7499L14.2599 29.5397C13.8599 29.6497 13.4999 29.8997 13.2499 30.2297C12.9999 30.5597 12.8599 30.9697 12.8599 31.3897V34.4697C12.8599 34.7997 12.9899 35.1097 13.2199 35.3397C13.4499 35.5697 13.7599 35.6997 14.0899 35.6997H26.4299C26.7599 35.6997 27.0699 35.5697 27.3099 35.3397C27.5399 35.1097 27.6699 34.7997 27.6699 34.4697V31.3897C27.6699 30.9697 27.5299 30.5597 27.2799 30.2297L27.2999 30.2497ZM26.5799 34.4897C26.5799 34.4897 26.5699 34.5597 26.5399 34.5897C26.5099 34.6197 26.4799 34.6297 26.4399 34.6297H14.0999C14.0999 34.6297 14.0299 34.6197 13.9999 34.5897C13.9799 34.5597 13.9599 34.5297 13.9599 34.4897V31.4097C13.9599 31.2297 14.0199 31.0597 14.1299 30.9097C14.2399 30.7697 14.3899 30.6597 14.5999 30.5997L17.1099 29.6797C17.4499 29.5797 17.7599 29.3897 17.9999 29.1297C18.2399 28.8697 18.3999 28.5497 18.4699 28.1997L18.7199 26.9597L18.4699 26.7497C17.8399 26.2297 17.6799 26.0397 17.2799 25.4297C16.9099 24.8597 16.7099 24.1897 16.7099 23.5097V21.4497C16.7099 20.9697 16.7999 20.4997 16.9899 20.0597C17.1799 19.6197 17.4499 19.2197 17.7899 18.8897C18.1299 18.5597 18.5399 18.2997 18.9799 18.1197C19.3899 17.9597 19.8299 17.8797 20.2599 17.8797C20.2899 17.8797 20.3299 17.8797 20.3599 17.8797C21.3099 17.9297 22.1899 18.3497 22.8399 19.0497C23.4899 19.7497 23.8399 20.6597 23.8299 21.6197V23.4997C23.8299 24.1497 23.6299 24.8197 23.2599 25.4297C22.9499 25.9297 22.2399 26.5697 22.0499 26.7097L21.7899 26.8997L21.9999 28.4997C22.0699 28.8497 22.2299 29.1697 22.4699 29.4297C22.7099 29.6897 23.0099 29.8797 23.3799 29.9797L25.9899 30.5997C26.1599 30.6497 26.2999 30.7497 26.4099 30.8897C26.5199 31.0297 26.5799 31.2097 26.5799 31.3797V34.4597V34.4897Z" fill="#16B378"/>
</g>
<defs>
<clipPath id="clip0_165_3120">
<rect width="32.57" height="30.72" fill="white" transform="translate(4 5)"/>
</clipPath>
</defs>
</svg>
