<?xml version="1.0" encoding="UTF-8" standalone="no"?>
<!DOCTYPE svg PUBLIC "-//W3C//DTD SVG 1.1//EN" "http://www.w3.org/Graphics/SVG/1.1/DTD/svg11.dtd">
<svg width="100%" height="100%" viewBox="0 0 50 50" version="1.1" xmlns="http://www.w3.org/2000/svg" xmlns:xlink="http://www.w3.org/1999/xlink" xml:space="preserve" xmlns:serif="http://www.serif.com/" style="fill-rule:evenodd;clip-rule:evenodd;stroke-linejoin:round;stroke-miterlimit:2;">
    <g transform="matrix(1,0,0,1,4,4)">
        <path d="M40.702,0.003C32.572,-0.136 23.316,4.151 17.456,10.8C11.856,10.905 6.396,13.215 2.376,17.273C2.15,17.501 2.064,17.85 2.168,18.165C2.272,18.48 2.532,18.709 2.862,18.761L9.555,19.725L8.723,20.67C8.411,21.003 8.429,21.544 8.757,21.859L16.835,30.012C16.367,29.085 16.281,28.017 16.627,26.985C17.128,25.463 18.499,24.413 20.092,24.326L24.858,24.045L26.626,19.215C27.18,17.659 28.654,16.625 30.284,16.625C31.914,16.625 33.386,17.656 33.942,19.215L34.429,20.528C38.952,14.824 41.693,7.458 41.552,0.859C41.534,0.389 41.17,0.022 40.702,0.003ZM32.71,15.123C31.86,15.963 30.752,16.401 29.642,16.401C28.532,16.401 27.424,15.963 26.574,15.123C24.892,13.409 24.892,10.627 26.574,8.928C28.272,7.214 31.028,7.214 32.71,8.928C34.392,10.624 34.392,13.406 32.71,15.123Z" style="fill:rgb(20,130,245);fill-rule:nonzero;"/>
        <path d="M4.721,29.581C2.865,31.453 0.32,39.916 0.036,40.874C-0.055,41.184 0.028,41.517 0.255,41.743C0.418,41.911 0.639,42 0.866,42C0.949,42 1.032,41.987 1.115,41.963C2.064,41.677 10.444,39.105 12.3,37.233C14.391,35.123 14.391,31.692 12.3,29.584C10.21,27.471 6.812,27.474 4.721,29.581Z" style="fill:rgb(20,130,245);fill-rule:nonzero;"/>
        <path d="M36.493,42C36.238,42 35.981,41.924 35.762,41.772L30.334,38.042L24.905,41.772C24.46,42.076 23.87,42.074 23.428,41.761C22.984,41.449 22.781,40.892 22.913,40.365L24.603,33.629L19.523,29.248C19.12,28.901 18.967,28.34 19.136,27.831C19.305,27.324 19.765,26.97 20.295,26.938L26.769,26.568L29.114,20.11C29.301,19.593 29.79,19.25 30.334,19.25C30.877,19.25 31.366,19.593 31.553,20.11L33.898,26.568L40.372,26.938C40.902,26.97 41.363,27.321 41.532,27.831C41.701,28.34 41.547,28.901 41.144,29.248L36.064,33.629L37.754,40.365C37.887,40.892 37.684,41.449 37.239,41.761C37.013,41.921 36.753,42 36.493,42Z" style="fill:rgb(249,174,65);fill-rule:nonzero;"/>
    </g>
</svg>
