<svg width="16" height="16" viewBox="0 0 16 16" fill="none" xmlns="http://www.w3.org/2000/svg">
<path fill-rule="evenodd" clip-rule="evenodd" d="M3.66699 3.33366C3.4829 3.33366 3.33366 3.4829 3.33366 3.66699V12.3337C3.33366 12.5178 3.4829 12.667 3.66699 12.667H12.3337C12.5178 12.667 12.667 12.5178 12.667 12.3337V3.66699C12.667 3.4829 12.5178 3.33366 12.3337 3.33366H3.66699ZM2.66699 3.66699C2.66699 3.11471 3.11471 2.66699 3.66699 2.66699H12.3337C12.8859 2.66699 13.3337 3.11471 13.3337 3.66699V12.3337C13.3337 12.8859 12.8859 13.3337 12.3337 13.3337H3.66699C3.11471 13.3337 2.66699 12.8859 2.66699 12.3337V3.66699Z" fill="#494949"/>
<path fill-rule="evenodd" clip-rule="evenodd" d="M4.66699 5.00033C4.66699 4.81623 4.81623 4.66699 5.00033 4.66699H7.00033C7.18442 4.66699 7.33366 4.81623 7.33366 5.00033V7.00033C7.33366 7.18442 7.18442 7.33366 7.00033 7.33366H5.00033C4.81623 7.33366 4.66699 7.18442 4.66699 7.00033V5.00033ZM5.33366 5.33366V6.66699H6.66699V5.33366H5.33366Z" fill="#494949"/>
<path fill-rule="evenodd" clip-rule="evenodd" d="M4.66699 9.00033C4.66699 8.81623 4.81623 8.66699 5.00033 8.66699H7.00033C7.18442 8.66699 7.33366 8.81623 7.33366 9.00033V11.0003C7.33366 11.1844 7.18442 11.3337 7.00033 11.3337H5.00033C4.81623 11.3337 4.66699 11.1844 4.66699 11.0003V9.00033ZM5.33366 9.33366V10.667H6.66699V9.33366H5.33366Z" fill="#494949"/>
<path fill-rule="evenodd" clip-rule="evenodd" d="M8.66699 5.00033C8.66699 4.81623 8.81623 4.66699 9.00033 4.66699H11.0003C11.1844 4.66699 11.3337 4.81623 11.3337 5.00033V11.0003C11.3337 11.1844 11.1844 11.3337 11.0003 11.3337H9.00033C8.81623 11.3337 8.66699 11.1844 8.66699 11.0003V5.00033ZM9.33366 5.33366V10.667H10.667V5.33366H9.33366Z" fill="#494949"/>
</svg>
