<svg width="16" height="16" viewBox="0 0 16 16" fill="none" xmlns="http://www.w3.org/2000/svg">
<path fill-rule="evenodd" clip-rule="evenodd" d="M5.00033 2.66699C5.18442 2.66699 5.33366 2.81623 5.33366 3.00033V6.97345L6.45876 6.07337C6.5805 5.97598 6.75348 5.97598 6.87522 6.07337L8.00033 6.97345V3.00033C8.00033 2.81623 8.14956 2.66699 8.33366 2.66699C8.51775 2.66699 8.66699 2.81623 8.66699 3.00033V7.66699C8.66699 7.79513 8.59354 7.91192 8.47806 7.96743C8.36257 8.02293 8.22548 8.00733 8.12543 7.92728L6.66699 6.76053L5.20856 7.92728C5.1085 8.00733 4.97142 8.02293 4.85593 7.96743C4.74044 7.91192 4.66699 7.79513 4.66699 7.66699V3.00033C4.66699 2.81623 4.81623 2.66699 5.00033 2.66699Z" fill="#494949"/>
<path fill-rule="evenodd" clip-rule="evenodd" d="M4.33366 3.33366C4.06844 3.33366 3.81409 3.43902 3.62655 3.62655C3.43902 3.81409 3.33366 4.06844 3.33366 4.33366V12.0003C3.33366 12.1844 3.18442 12.3337 3.00033 12.3337C2.81623 12.3337 2.66699 12.1844 2.66699 12.0003V4.33366C2.66699 3.89163 2.84259 3.46771 3.15515 3.15515C3.46771 2.84259 3.89163 2.66699 4.33366 2.66699H11.667C12.109 2.66699 12.5329 2.84259 12.8455 3.15515C13.1581 3.46771 13.3337 3.89163 13.3337 4.33366V12.0003C13.3337 12.1844 13.1844 12.3337 13.0003 12.3337C12.8162 12.3337 12.667 12.1844 12.667 12.0003V4.33366C12.667 4.06844 12.5616 3.81409 12.3741 3.62655C12.1866 3.43902 11.9322 3.33366 11.667 3.33366H4.33366Z" fill="#494949"/>
<path fill-rule="evenodd" clip-rule="evenodd" d="M4.00033 11.3337C3.63214 11.3337 3.33366 11.6321 3.33366 12.0003C3.33366 12.3685 3.63214 12.667 4.00033 12.667H12.0003C12.3685 12.667 12.667 12.3685 12.667 12.0003C12.667 11.6321 12.3685 11.3337 12.0003 11.3337H4.00033ZM2.66699 12.0003C2.66699 11.2639 3.26395 10.667 4.00033 10.667H12.0003C12.7367 10.667 13.3337 11.2639 13.3337 12.0003C13.3337 12.7367 12.7367 13.3337 12.0003 13.3337H4.00033C3.26395 13.3337 2.66699 12.7367 2.66699 12.0003Z" fill="#494949"/>
</svg>
