<svg width="16" height="16" viewBox="0 0 16 16" fill="none" xmlns="http://www.w3.org/2000/svg">
<path fill-rule="evenodd" clip-rule="evenodd" d="M5.4903 3.82474C5.7817 3.71178 6.09283 3.65851 6.40521 3.66809L6.41398 3.66836C7.02941 3.70347 7.60745 3.97518 8.02731 4.42652C8.44657 4.87721 8.67569 5.47229 8.66699 6.08771V7.00127C8.66661 7.44813 8.53792 7.88577 8.29622 8.26162C8.1004 8.56614 7.83707 8.8199 7.52802 9.00405L7.63296 9.74268L9.27479 10.2093C9.48359 10.269 9.66783 10.3953 9.79863 10.5686C9.92943 10.742 10.0002 10.9533 10.0003 11.1705V12.6679C10.0003 12.852 9.85109 13.0013 9.66699 13.0013H3.00033C2.81623 13.0013 2.66699 12.852 2.66699 12.6679V11.1679C2.66709 10.9507 2.73789 10.7394 2.86869 10.566C2.99949 10.3926 3.18318 10.2665 3.39199 10.2068L5.03436 9.74001L5.13921 9.004C4.8302 8.81986 4.5669 8.56611 4.3711 8.26162C4.1294 7.88577 4.00071 7.44841 4.00033 7.00155L4.00033 6.00142C4.00033 6.00137 4.00033 6.00148 4.00033 6.00142C4.0002 5.68894 4.06284 5.37946 4.18453 5.09165C4.30624 4.80379 4.48454 4.54332 4.70884 4.32568C4.93315 4.10805 5.19889 3.9377 5.4903 3.82474ZM6.38039 4.33431C6.15873 4.3281 5.93804 4.36617 5.73126 4.44633C5.52311 4.52702 5.3333 4.6487 5.17308 4.80415C5.01286 4.9596 4.8855 5.14566 4.79857 5.35127C4.71163 5.55689 4.66689 5.77787 4.66699 6.00111L4.66699 7.00098C4.66699 7.00092 4.66699 7.00104 4.66699 7.00098C4.6673 7.32011 4.75922 7.63262 4.93183 7.90104C5.10447 8.1695 5.35057 8.38275 5.64088 8.51543C5.77525 8.57683 5.85316 8.71936 5.83233 8.86561L5.69433 9.83428C5.67607 9.96177 5.62124 10.0815 5.53653 10.1785C5.45182 10.2755 5.34082 10.3459 5.21696 10.3812L3.57533 10.8477C3.57527 10.8478 3.57538 10.8477 3.57533 10.8477C3.50579 10.8677 3.44445 10.9097 3.40089 10.9675C3.35732 11.0252 3.33372 11.0956 3.33366 11.1679M6.38039 4.33431C6.82246 4.36066 7.23748 4.55626 7.53919 4.88059C7.8419 5.206 8.00714 5.6358 8.00036 6.08019L8.00033 7.00098C8.00005 7.32017 7.90813 7.63257 7.73549 7.90104C7.56285 8.1695 7.31674 8.38275 7.02644 8.51543C6.89211 8.57681 6.8142 8.71927 6.83497 8.86549L6.97297 9.83682C6.99123 9.96431 7.04608 10.0841 7.13079 10.1812C7.21549 10.2782 7.32649 10.3486 7.45036 10.3839L9.09199 10.8504C9.09192 10.8504 9.09206 10.8504 9.09199 10.8504C9.16151 10.8703 9.22287 10.9124 9.26643 10.9701C9.31003 11.0279 9.33363 11.0984 9.33366 11.1707V12.3346H3.33366V11.1679" fill="#494949"/>
<path fill-rule="evenodd" clip-rule="evenodd" d="M8.16682 3.31223C8.54261 3.09543 8.9714 2.98769 9.40504 3.00112L9.41371 3.00139C10.0291 3.03649 10.6072 3.30821 11.027 3.75954C11.4463 4.21023 11.6754 4.80531 11.6667 5.42073V6.33429C11.6663 6.78115 11.5377 7.21879 11.296 7.59465C11.1001 7.89915 10.8368 8.15291 10.5278 8.33705L10.6314 9.06534L12.5762 9.55157C12.7925 9.60574 12.9846 9.73066 13.1217 9.90641C13.2589 10.0822 13.3334 10.2987 13.3334 10.5216V12.6676C13.3334 12.8517 13.1842 13.001 13.0001 13.001H11.0001C10.816 13.001 10.6667 12.8517 10.6667 12.6676C10.6667 12.4835 10.816 12.3343 11.0001 12.3343H12.6667V10.5216C12.6667 10.4473 12.6419 10.3751 12.5962 10.3166C12.5505 10.258 12.4865 10.2164 12.4144 10.1983L10.47 9.71237C10.3413 9.68025 10.225 9.61043 10.1362 9.51185C10.0474 9.41332 9.99002 9.29055 9.97138 9.15924L9.83471 8.19857C9.81391 8.05234 9.89182 7.90985 10.0262 7.84845C10.3165 7.71578 10.5626 7.50253 10.7352 7.23406C10.9079 6.96559 10.9998 6.6532 11.0001 6.33401V5.41321C11.0068 4.96883 10.8416 4.53902 10.5389 4.21362C10.2372 3.88928 9.82217 3.69367 9.38008 3.66734C9.07181 3.65859 8.76713 3.73555 8.49996 3.88969C8.3405 3.98168 8.13666 3.92699 8.04466 3.76753C7.95266 3.60807 8.00736 3.40422 8.16682 3.31223Z" fill="#494949"/>
</svg>
