<svg width="80" height="80" viewBox="0 0 80 80" fill="none" xmlns="http://www.w3.org/2000/svg">
<g clip-path="url(#clip0_660_729)">
<path d="M64.9281 45.9527H61.909V27.931C61.909 16.9769 53.1434 8.06838 42.3652 8.06838H37.7157C26.9375 8.06838 18.172 16.9769 18.172 27.931V45.9527H15.1528V27.931C15.1428 15.2893 25.2669 5 37.7057 5H42.3551C54.7939 5 64.918 15.2893 64.918 27.931V45.9527H64.9281Z" fill="#45C7D9"/>
<path d="M44.7402 72.6062V69.5378C54.2102 69.5378 61.909 61.7135 61.909 52.089V47.8955H64.9281V52.089C64.9281 63.4011 55.8707 72.6062 44.7402 72.6062Z" fill="#45C7D9"/>
<path d="M41.288 75.0004C43.5446 75.0004 45.3739 73.1412 45.3739 70.8479C45.3739 68.5545 43.5446 66.6953 41.288 66.6953C39.0315 66.6953 37.2021 68.5545 37.2021 70.8479C37.2021 73.1412 39.0315 75.0004 41.288 75.0004Z" fill="#45C7D9"/>
<path d="M15.6156 32.4824H18.212V53.2042H15.6156C12.5159 53.2042 10 50.6472 10 47.497V38.1896C10 35.0394 12.5159 32.4824 15.6156 32.4824Z" fill="#45C7D9"/>
<path d="M64.3844 53.2041H61.788V32.4823H64.3844C67.4841 32.4823 70 35.0393 70 38.1895V47.4969C70 50.6471 67.4841 53.2041 64.3844 53.2041Z" fill="#45C7D9"/>
<path d="M53.3747 36.7166L55.9308 36.1848C55.9812 35.3256 55.9711 34.4154 55.8906 33.546L53.3344 32.8505L52.5293 29.9867L54.381 28.074C54.0087 27.2558 53.5659 26.4989 53.0627 25.7932L50.4964 26.5092L48.383 24.4329L49.0674 21.835C48.3126 21.3645 47.6081 20.894 46.793 20.5463L45.0016 22.4691L42.1536 21.6918L41.5196 18.9609C40.6742 18.9098 39.7785 18.92 38.9231 19.0019L38.2388 21.5998L35.3606 22.418L33.4786 20.536C32.6735 20.9145 31.9288 21.3645 31.2344 21.8759L31.9389 24.484L29.896 26.6319L27.3398 25.9364C26.8768 26.7035 26.4139 27.4195 26.0717 28.2479L27.9537 30.1299L27.1888 33.0244L24.6226 33.679C24.5722 34.5381 24.5823 35.4484 24.6628 36.3178L27.219 37.0133L28.0241 39.8771L26.1724 41.7897C26.5447 42.6079 26.9875 43.3648 27.4907 44.0705L30.057 43.3546L32.1704 45.4308L31.4256 48.0185C32.1804 48.489 32.8849 48.9595 33.7 49.3072L35.5518 47.3946L38.3998 48.1719L39.1043 50.7801C39.9496 50.8312 40.8453 50.821 41.7007 50.7392L42.3851 48.1413L45.2029 47.323L47.0848 49.205C47.8899 48.8265 48.6346 48.3765 49.329 47.8651L48.6246 45.257L50.6675 43.1091L53.2237 43.8046C53.6866 43.0375 54.1496 42.3216 54.4917 41.4931L52.6098 39.6112L53.3747 36.7166ZM39.8188 43.1705C35.3002 42.9148 31.8483 38.9872 32.0999 34.3949C32.3515 29.8026 36.216 26.2944 40.7346 26.5501C45.2532 26.8058 48.7051 30.7333 48.4535 35.3256C48.2019 39.918 44.3374 43.4262 39.8188 43.1705Z" fill="#45C7D9"/>
</g>
<defs>
<clipPath id="clip0_660_729">
<rect width="60" height="70" fill="white" transform="translate(10 5)"/>
</clipPath>
</defs>
</svg>
